<?xml version="1.0" encoding="utf-8"?>
<!DOCTYPE svg PUBLIC "-//W3C//DTD SVG 1.1//EN" "http://www.w3.org/Graphics/SVG/1.1/DTD/svg11.dtd">
<svg xmlns="http://www.w3.org/2000/svg" xml:space="preserve" width="140.75" height="142.25">
  <path fill="red" d="M0 133.5V7.25S2 0 8.25 0H133.5s7.25.75 7.25 7.75V134.5s-1.75 7.75-8 7.75H7.25S0 140.25 0 133.5z"/>
  <path fill="#FFF" d="M48.75 56c0-9.25-6-11.25-6-11.25 7-1.75 5.5-9.583 5.5-9.583C48.25 23.5 37.917 23 37.917 23H11.25v45.5H38.5C48.5 67 48.75 56 48.75 56zM34.5 49s2.25.75 2.25 5.5c0 0-.5 5.25-3 5.25l-11.5-.25V31.75H33.5s3.5.25 3.5 5c0 0 .25 4.5-3.75 4.5H26.5V49h8zm29-26L47 68.75h26.25V59H63.5l6-16.5 9 26.25h12L76 23H63.5zm55.25 0v23.75L104.5 23H92.25v45.75H104v-23L117.75 69h11.75V23h-10.75zm-68.5 75C50.25 77 35 76 35 76H11.5v46h22c19.25-3.75 16.75-24 16.75-24zM31.5 112.25h-8.75v-27h9.75s7 1.5 7 14c0 0-1.25 13-8 13zm60.25 9.25h11.5V76h-11.5v45.5zM62.5 75.75 46 121.5h26.25v-9.75H62.5l6-16.5 9 26.25h12L75 75.75H62.5z"/>
</svg>