<?xml version="1.0" encoding="UTF-8" standalone="no"?>
<!-- Created with Inkscape (http://www.inkscape.org/) -->

<svg
   width="191mm"
   height="89mm"
   viewBox="0 0 191 89"
   version="1.1"
   id="svg5"
   xml:space="preserve"
   inkscape:version="1.2.2 (732a01da63, 2022-12-09)"
   sodipodi:docname="KenganAshura.svg"
   inkscape:export-filename="KenganAshura.png"
   inkscape:export-xdpi="96"
   inkscape:export-ydpi="96"
   xmlns:inkscape="http://www.inkscape.org/namespaces/inkscape"
   xmlns:sodipodi="http://sodipodi.sourceforge.net/DTD/sodipodi-0.dtd"
   xmlns="http://www.w3.org/2000/svg"
   xmlns:svg="http://www.w3.org/2000/svg"><sodipodi:namedview
     id="namedview7"
     pagecolor="#ffffff"
     bordercolor="#111111"
     borderopacity="1"
     inkscape:showpageshadow="0"
     inkscape:pageopacity="0"
     inkscape:pagecheckerboard="1"
     inkscape:deskcolor="#d1d1d1"
     inkscape:document-units="mm"
     showgrid="true"
     inkscape:zoom="1.0255231"
     inkscape:cx="346.16481"
     inkscape:cy="139.92859"
     inkscape:window-width="1920"
     inkscape:window-height="1001"
     inkscape:window-x="-9"
     inkscape:window-y="-9"
     inkscape:window-maximized="1"
     inkscape:current-layer="layer1"><inkscape:grid
       type="xygrid"
       id="grid302"
       originx="0"
       originy="0" /></sodipodi:namedview><defs
     id="defs2" /><g
     inkscape:label="Слой 1"
     inkscape:groupmode="layer"
     id="layer1"><path
       style="display:inline;fill:#1e0e0c;fill-opacity:1;stroke-width:0.264583"
       d="m 23.503818,88.675451 0.716621,-0.726919 36.006145,-29.289955 -4.894792,-2.459665 -5.461939,-2.246974 8.89627,-1.583359 7.613351,-1.079122 1.013082,-1.111433 6.379109,-7.783825 -0.746665,-3.765032 -4.233333,-0.264584 -0.328774,2.264319 -0.634526,4.416068 -0.797171,0.323874 -8.725927,2.471772 0.511496,-2.157953 0.449902,-2.290996 -2.991434,0.653398 -3.142225,0.728592 0.912086,0.908477 1.020133,1.15592 -12.354649,3.419165 -4.260197,-5.22552 -4.099139,-5.44234 -0.674452,2.84021 -0.629849,3.289125 L 0.06158,61.105136 0,60.873652 11.81117,50.200167 23.534145,39.758166 l 2.796304,-4.209328 3.289309,-4.752546 0.561969,-12.102885 0.06897,-11.5596676 4.480059,8.1341356 4.884272,8.767904 0.404215,0.633769 2.127183,-2.280045 2.127187,-2.280045 7.9375,-1.873533 16.230034,-3.863614 8.389347,-1.893276 -16.152719,9.311787 -3.704167,2.403869 10.108483,-1.091143 -0.451191,1.224504 -0.432269,1.243427 2.417091,-0.390624 2.283272,-0.524438 1.332256,0.479 -1.058333,4.233333 2.910416,0.529167 0.592654,-1.630269 1.074364,-3.936863 1.26333,-2.97068 0.765477,-0.465753 11.146355,-6.428912 3.27564,-1.696998 -2.7542,5.326941 -1.32234,3.9297 0.72392,-0.761008 6.401467,0.167175 9.26042,-0.264583 -1.32292,1.322916 -1.32292,2.645834 -2.381247,3.175 V 28.575 l 3.084277,-3.70598 3.54492,-3.83708 13.55108,-2.170692 -1.39486,7.332502 3.175,1.058333 2.91042,-4.7625 2.9986,-3.792079 1.5875,-0.711406 12.03854,-6.431553 4.7625,-2.568469 5.68854,-3.0610903 6.87917,-3.7398188 3.96875,-1.55487303 -13.89063,11.45008113 -13.09687,10.81204 -4.0563,6.305582 -3.79962,6.562257 0.72534,0.603455 1.37635,4.475962 1.37636,4.475961 2.73137,-3.484311 2.62519,-4.016221 -0.26066,-1.497217 -0.15448,-0.965308 3.09,-1.485845 3.22365,-1.352182 1.13606,6.119045 1.12924,6.11222 17.00494,-8.483254 16.98523,-8.502956 -0.65269,0.855929 -34.67942,28.706329 -2.97656,-1.653646 -2.65906,-2.931843 -1.52135,-0.866624 -0.59531,5.552636 -0.18706,5.3931 -1.65365,-1.577226 -1.46658,-1.577226 -5.90902,-6.886101 -0.79375,0.79375 -3.43959,0.529167 -0.32282,1.714917 -0.49663,1.241216 -6.18335,5.312005 -5.94035,3.953386 1.62794,-3.915275 2.72516,-4.89555 -18.700467,14.514084 -1.11082,0.681527 4.01354,-7.1095 4.239227,-7.310988 -3.894427,0.97124 -3.88078,0.770943 -1.14047,0.28583 -9.038573,3.432466 -8.40052,2.652654 -0.287994,-3.831397 v -3.831397 l -1.256771,0.165981 -3.459006,3.467767 -1.112091,2.901421 -19.641796,10.133076 -22.882938,11.831821 z m 28.971646,-17.348648 15.081025,-8.580194 1.587725,-2.595483 1.587727,-2.595484 2.248958,-0.439645 3.108855,-0.599887 0.859895,-0.160245 v 3.792231 3.792233 l 3.198323,-0.867656 3.341905,-1.011237 -1.671183,-8.364633 -1.67291,-7.540625 -1.332881,-4.745607 -1.455126,0.290105 -1.413079,1.131081 -4.323124,5.96556 -4.691925,5.26627 -4.342614,0.4485 -3.704167,0.529715 2.720949,1.177541 2.717077,1.164669 -1.719791,2.204141 -13.961869,11.199842 -12.435417,9.56772 z m 20.770019,-17.934652 2.923886,-5.516182 0.274447,1.12448 0.135967,2.652728 -0.221774,1.633723 z m 32.381277,7.372451 6.77705,-6.967154 0.20964,-1.203077 1.7969,-9.685766 0.34272,-1.785937 0.0818,-0.919615 -2.6245,2.44217 -2.45237,3.785889 -2.4474,2.382178 -1.78593,-0.0059 0.41761,-1.625087 0.41762,-1.436548 -1.38986,-1.713028 -1.55955,-1.713035 -1.58045,3.836459 -0.92217,2.248958 -0.63422,1.387398 -0.525733,1.272076 -3e-6,0.529167 h 0.793756 1.32291 1.32292 l 1.62447,0.301939 4.30309,-1.046713 -3.10821,5.103979 -5.49223,8.97808 5.11216,-4.166462 z m -17.128037,-0.364273 4.105444,-2.191996 3.96875,-1.322916 3.175,-0.79375 L 97.895833,53.975 96.572917,50.270833 V 48.947917 L 95.25,46.302083 l -1.912767,-3.767688 -2.79171,2.604641 3.38156,7.777631 -1.322916,1.322916 -2.645834,-6.614583 -2.645833,1.322917 1.807983,3.941728 0.83785,1.349938 1.322917,1.322917 -2.151967,0.912429 -3.1397,-7.527012 -2.545956,2.367637 0.103815,0.617297 0.379476,1.521354 1.619975,7.584787 2.95183,-0.638662 z m 25.884767,-0.306585 2.77974,-2.160243 2.95532,-3.503867 0.95945,-2.08185 2.66299,-0.10202 1.32291,-1.322916 0.79375,1.5875 0.79375,-0.79375 4.26868,6.027464 -5.06243,-5.233714 -0.79375,-1.5875 2.25301,-2.157472 1.92495,-2.645834 -1.27498,-4.522176 -1.26372,-4.15249 -3.60964,3.623323 -4.42372,5.753074 1.71562,-0.51919 0.13646,-0.164806 -2.38125,5.197724 -2.38125,5.003319 -0.79375,1.450081 -0.79375,1.644456 -0.43788,0.782106 -0.84093,1.291218 z m 8.13889,-10.745928 2.03784,-5.048681 0.78385,1.193408 0.11088,2.072678 z m -9.01567,5.547096 0.77482,-2.056543 1.00155,-10.518136 4.57317,-2.103566 2.75904,0.320083 -2.61683,0.46114 -2.50022,0.577749 -0.43873,2.025688 -0.86066,3.386111 -0.49942,1.984375 z m 22.72292,-4.838965 2.68801,-0.416393 0.16725,1.631455 0.0901,1.552401 1.67522,0.921729 2.17517,0.431972 13.56767,-10.543919 13.01578,-10.120845 -13.0791,6.838085 -13.14144,6.790505 -1.17651,-5.779749 -1.12793,-5.877271 -1.58258,0.874455 -1.52119,1.93157 -2.40781,3.888042 -5.06267,6.438998 -2.65915,3.396289 2.75185,2.747198 2.75185,2.747195 0.13229,-3.478135 0.1323,-3.478136 z m -0.47665,-3.087055 2.37204,-3.203408 0.38853,1.5875 -0.72761,1.591111 -1.29305,0.155342 z m -113.945797,0.565037 10.077322,-5.723803 0.770247,-2.812616 1.488096,-2.979041 4.791768,5.975109 4.450588,5.532062 3.911103,-0.781219 3.911099,-0.78122 -1.085649,-0.977627 -7.247418,-6.211581 -6.16177,-5.233953 9.733645,-5.559076 10.698228,-6.052496 1.332359,-0.832857 3.656182,-2.124398 4.8066,-2.567046 -2.645833,0.79375 -2.116667,0.529166 -4.8066,1.304747 -2.116666,0.503716 -5.55625,1.351107 -4.365625,1.090661 -4.137848,4.119534 -4.443229,3.930798 0.764524,-2.138159 1.069906,-1.949422 -3.108968,-5.723656 -3.166882,-5.237777 -0.326285,8.200187 -0.268369,7.714308 -3.478165,5.382567 -3.478165,5.382567 -6.191602,5.291667 -7.498457,6.687505 z m 72.1199,-9.169346 -1.62957,1.83847 7.18582,-11.628053 v -0.264583 l -3.85218,0.05886 -1.32302,0.212587 -2.21499,2.194727 -0.98829,1.885836 -3.792353,7.025073 -2.645833,1.322917 2.116666,-5.820834 1.852084,-3.439583 1.322916,-2.645833 2.645834,-2.645834 h 5.291666 l 1.24026,-1.013299 1.195177,-1.47379 0.45749,-0.795648 -7.831817,-0.05068 -2.93262,-0.252368 -1.98437,1.417015 -2.579536,2.697937 -0.79375,0.79375 -0.219946,0.322622 -5.011176,8.879454 2.019863,1.770938 1.871813,1.531388 0.810279,0.195598 3.175,-0.79375 4.233333,1.852083 1.058334,-1.852083 v 0 z m -2.38125,3.175 L 87.3125,39.6875 85.989583,42.597917 83.135144,42.27792 82.280262,41.736646 81.28958,41.331178 l 1.236235,4.854876 3.463768,-1.206887 1.322917,1.322916 1.322917,-1.322916 z m 10.918787,-1.599471 1.89204,-5.226571 -1.02482,0.262938 -7.596777,6.574017 0.57327,2.105754 1.058334,2.910417 1.5875,3.175 1.444153,-4.379239 2.06631,-5.422316 z m -36.054203,0.541138 0.79375,-4.497917 6.879166,-0.264583 1.279684,4.755 1.124045,-0.177874 1.389875,-1.870003 -0.08944,-2.177956 0.97636,-2.734542 2.946157,-5.348864 3.455826,-6.085417 1.088324,-1.970761 0.529166,-0.79375 0.50717,-0.848675 1.08033,-1.267991 -1.5875,1.058333 -4.542017,2.760115 -4.497917,2.697501 -1.592167,5.304778 -1.274149,2.466773 -2.116666,-0.529167 -3.704167,-0.264583 1.385718,-3.68972 -1.980477,-0.04494 -2.000025,0.677683 -3.450003,10.716281 -1.02785,3.439584 -0.762627,2.543016 -0.158719,0.558641 2.178847,-0.435544 2.178843,-0.435544 z m 45.239633,0.04209 3.31404,-2.987003 0.33528,-0.703551 0.5952,-4.090599 0.5221,-0.992187 0.37362,0.112387 3.59513,-0.112387 -2.28757,7.885289 6.95525,-1.409993 -0.39552,-1.389449 -0.52197,-1.263002 4.55768,-6.694511 4.55768,-6.694509 3.13632,-2.526963 4.27778,-3.558094 0.88701,-0.752934 0.79375,-0.529166 0.26459,-0.264584 0.38294,-0.39372 0.5081,-0.413644 0.83159,-0.595313 1.14368,-0.942903 3.74827,-3.2106697 -6.53385,3.7920867 -10.11348,5.711427 -4.82926,2.728667 -3.39424,3.907402 -2.64584,3.96875 h -1.32291 l -3.96875,-1.322917 1.54345,-6.744647 -1.66143,0.3053 -1.40468,0.378086 -0.62505,0.226814 -0.65984,1.611258 -0.10287,0.25444 -0.26489,1.044719 -1.25501,5.820833 -0.78691,3.704167 -2.94933,8.290063 -0.27694,1.058333 3.67691,-3.207276 z m -56.58898,1.788289 4.992955,-0.934847 1.990492,-5.27477 -1.669836,1.226412 -1.813573,1.75558 -3.042708,0.534463 -3.095659,0.484529 0.550198,-2.025462 0.603147,-1.975522 1.698762,-0.299501 2.959598,-0.479843 1.918229,-1.477639 0.657392,-1.530827 -2.844271,0.253439 -3.149283,0.489313 1.056884,-3.858739 2.55542,-0.756526 3.406473,-0.830463 1.400127,-0.359142 v 0 l 0.725638,-1.349313 0.332695,-1.031938 -0.79375,0.264584 -1.324882,0.213067 -5.823172,0.678115 -5.119576,0.716017 -2.73935,2.156534 -2.657377,2.238507 2.302679,-0.436861 2.425673,-0.317175 -2.645833,3.979162 -2.850803,3.903736 5.363503,4.829951 z m 53.72725,-5.244192 0.31278,-2.685217 0.53502,-3.307292 0.48865,-2.934729 0.5749,-3.644604 0.33075,-2.422881 -2.32262,0.185204 -2.19712,0.310713 -3.69008,4.619735 -2.01435,3.238717 -3.175,5.291667 -1.058333,1.5875 -2.074384,2.542222 3.30252,-2.795865 3.805867,-3.280035 5.1546,-1.152085 -2.7598,7.551764 2.24527,-0.886656 z m -5.11576,-6.270324 3.12513,-4.484685 0.70843,3.788051 -3.50283,0.832733 z m -59.136585,5.304899 0.09594,-1.902844 -0.4972,-1.109091 -1.518052,0.516644 -1.907836,0.660429 2.870231,2.687241 0.956919,-0.852379 z"
       id="path304"
       sodipodi:nodetypes="cccccccccccccccccccccccccccccccccccccccccccccccccccccccccccccccccccccccccccccccccccccccccccccccccccccccccccccccccccccccccccccccccccccccccccccccccccccccccccccccccccccccccccccccccccccccccccccccccccccccccccccccccccccccccccccccccccccccccccccccccccccccccccccccccccccccccccccccccccccccccccccccccccccccccccccccccccccccccccccccccccccccccccccccccccccccccccccccccccccccccccccccccccccccccccccccccccccccccccccccccccccccccccccccccccccccccccccccccccccccccccccccccccccccccccccccccccccccccccccccccccccccccccccccccccccccccccccccccccc" /><path
       style="fill:#ffffff;fill-opacity:1;stroke:none;stroke-width:2.027;stroke-linejoin:round;stroke-dashoffset:4.8378;paint-order:stroke fill markers"
       d="m 46.805383,198.96 c 0,-0.3841 21.821897,-19.73345 34.471788,-30.56594 l 12.565722,-10.76042 13.119547,-20.31009 13.11955,-20.31009 0.64748,-18.039578 c 0.96806,-26.971373 1.55972,-40.298512 1.7997,-40.53849 0.34502,-0.345021 11.91935,19.1879 17.64788,29.782692 l 5.25638,9.721556 -2.26638,4.41757 c -2.14532,4.1816 -4.93702,11.48713 -4.38963,11.48713 0.65198,0 17.85798,-15.620025 25.04142,-22.733214 l 8.04467,-7.966001 23.15892,-5.64623 c 20.6437,-5.033011 36.80415,-9.189266 49.2309,-12.661538 2.27258,-0.635003 4.2057,-1.080823 4.29581,-0.990712 0.0901,0.09011 -3.01252,1.835366 -6.89473,3.878346 -3.88221,2.042978 -10.64213,5.834962 -15.02204,8.426629 -8.74155,5.172527 -16.86316,9.826922 -59.52253,34.11168 -15.75415,8.96839 -28.64392,16.38683 -28.64392,16.48543 0,0.0986 5.75926,5.07293 12.79835,11.05407 7.03909,5.98115 18.91794,16.14649 26.39745,22.58965 7.4795,6.44316 14.01062,12.04787 14.51359,12.45491 0.8367,0.67711 -0.31268,0.98402 -13.5092,3.60727 -12.30056,2.44515 -14.51767,2.76682 -15.06208,2.18527 -0.35111,-0.37507 -8.27153,-10.20432 -17.60093,-21.84278 l -16.96255,-21.16086 -2.91168,5.80284 c -1.66997,3.32819 -3.55874,8.06602 -4.42899,11.10982 l -1.51731,5.30699 -36.322926,20.64682 c -19.97761,11.35575 -36.487477,20.65066 -36.688594,20.65537 -0.201117,0.005 -0.365667,-0.0844 -0.365667,-0.1981 z"
       id="path7042"
       transform="scale(0.26458333)" /><path
       style="fill:#ffffff;fill-opacity:1;stroke:none;stroke-width:2.027;stroke-linejoin:round;stroke-dashoffset:4.8378;paint-order:stroke fill markers"
       d="m 180.99019,153.77572 c -5.4219,-4.87011 -9.85801,-9.05365 -9.85801,-9.29675 0,-0.24309 2.04709,-3.23128 4.54909,-6.64041 4.76685,-6.49514 15.44071,-22.27845 15.44071,-22.832 0,-0.54147 -11.83454,0.99047 -15.84557,2.05115 -1.2617,0.33365 0.23399,-0.98761 10.48245,-9.25994 l 8.04468,-6.49349 11.21379,-1.533764 c 6.16758,-0.843569 16.04059,-2.095512 21.94002,-2.782094 5.89943,-0.686582 11.6878,-1.460632 12.86304,-1.720112 1.17525,-0.25948 2.25168,-0.356911 2.39208,-0.216513 0.1404,0.140398 -0.60176,1.948614 -1.64925,4.018258 l -1.90452,3.762995 -11.94513,3.03079 c -6.56982,1.66694 -12.80777,3.33864 -13.86212,3.71488 l -1.917,0.68407 -2.02555,7.27578 c -1.45007,5.2087 -1.85529,7.31771 -1.42631,7.42335 0.32957,0.0812 3.31042,-0.28751 6.6241,-0.81927 8.88197,-1.42531 15.27543,-1.8457 14.93304,-0.98189 -1.65047,4.16386 -2.04869,4.71339 -5.08468,7.01671 -1.76727,1.34078 -3.48068,2.59398 -3.80758,2.7849 -0.3269,0.19091 -4.08431,0.91121 -8.34981,1.60066 -4.26549,0.68944 -8.20673,1.44168 -8.7583,1.67164 -0.79296,0.3306 -1.44216,1.96558 -3.10172,7.81156 -1.15438,4.0664 -2.00313,7.48919 -1.88612,7.6062 0.117,0.11701 5.45123,-0.65738 11.85382,-1.72085 l 11.64109,-1.9336 3.43679,-3.35597 c 3.41014,-3.32995 8.06534,-7.07318 8.39119,-6.74733 0.0934,0.0934 -1.34238,4.20928 -3.19052,9.1465 l -3.36025,8.97676 -6.51515,1.31083 c -3.58334,0.72095 -11.12256,2.09847 -16.75383,3.06114 -5.63127,0.96268 -10.79393,1.86062 -11.47257,1.99544 -1.05296,0.20918 -2.67934,-1.05323 -11.0919,-8.60963 z"
       id="path7044"
       transform="scale(0.26458333)" /><path
       style="fill:#ffffff;fill-opacity:1;stroke:none;stroke-width:2.027;stroke-linejoin:round;stroke-dashoffset:4.8378;paint-order:stroke fill markers"
       d="m 231.91094,166.84752 c 3.27637,-11.16361 9.33848,-30.70739 13.94527,-44.9585 l 5.51623,-17.06446 3.63803,-1.3102 c 2.62344,-0.94481 4.62382,-1.31873 7.17281,-1.34078 1.94413,-0.0168 3.53478,0.0754 3.53478,0.20488 0,0.1295 -1.1175,3.21718 -2.48333,6.8615 -1.36583,3.64432 -2.40554,6.70382 -2.31047,6.79889 0.0951,0.0951 3.35172,0.42087 7.237,0.72402 3.88528,0.30315 8.7462,0.97719 10.80204,1.49788 2.05585,0.52069 3.86391,0.94671 4.0179,0.94671 0.15399,0 1.40299,-2.23784 2.77554,-4.97298 1.64019,-3.26845 3.47157,-8.22571 5.34309,-14.462903 1.56614,-5.219462 3.1328,-9.752578 3.48145,-10.073589 0.34866,-0.321012 4.80252,-3.071549 9.89749,-6.112305 5.09496,-3.040756 12.97051,-7.792883 17.50123,-10.560282 4.53072,-2.767399 8.3203,-4.949005 8.42129,-4.848012 0.101,0.100993 -0.93323,1.915613 -2.29828,4.03249 -1.36505,2.116878 -5.8858,9.882374 -10.04613,17.25666 -22.58231,40.027741 -24.06057,43.173831 -24.06057,51.206521 v 4.53184 l -2.65026,3.52119 c -2.30858,3.06724 -2.88081,3.54811 -4.43861,3.72997 -1.01016,0.11793 -1.8664,-0.0164 -1.96773,-0.30867 -0.0987,-0.2846 -1.18123,-4.23731 -2.40571,-8.7838 -1.22447,-4.54649 -2.31151,-8.35156 -2.41565,-8.45569 -0.18588,-0.18588 -26.24758,0.8216 -26.36701,1.01929 -0.0335,0.0555 -0.75724,4.05016 -1.60819,8.87696 -0.85095,4.82681 -2.36817,11.61982 -3.37159,15.09559 l -1.82441,6.31958 -6.33823,1.26891 c -3.48603,0.6979 -7.03698,1.41099 -7.891,1.58466 l -1.55277,0.31575 z"
       id="path7046"
       transform="scale(0.26458333)" /><path
       style="fill:#ffffff;fill-opacity:1;stroke:none;stroke-width:2.027;stroke-linejoin:round;stroke-dashoffset:4.8378;paint-order:stroke fill markers"
       d="m 144.3166,298.50585 c 0.40223,-0.41153 9.83644,-7.75124 20.96491,-16.31046 11.12847,-8.55923 31.86179,-24.90487 46.07405,-36.32365 22.99245,-18.4732 26.18111,-21.20296 28.93118,-24.7675 1.69989,-2.20333 2.90659,-4.18748 2.68156,-4.40922 -0.22503,-0.22174 -4.57247,-2.18503 -9.66097,-4.36286 -5.0885,-2.17783 -9.31342,-4.0213 -9.38873,-4.09661 -0.20301,-0.20301 14.17724,-2.12239 22.28496,-2.97443 4.08046,-0.42882 7.29038,-0.99655 7.60985,-1.34595 10.61229,-11.60599 18.32422,-20.91653 25.2445,-30.47742 9.10319,-12.57673 11.55324,-15.03114 16.02244,-16.05089 1.40121,-0.31971 2.57745,-0.53911 2.61386,-0.48755 0.4702,0.66577 6.14308,22.7749 8.03043,31.29733 2.85564,12.89478 9.23658,44.41875 9.23658,45.63181 0,0.45062 -0.4913,0.92298 -1.097,1.05472 -0.60335,0.13123 -5.26561,1.44968 -10.36057,2.92991 -5.09496,1.48023 -9.97661,2.84197 -10.84812,3.0261 l -1.58456,0.33477 v -14.17786 c 0,-7.79783 -0.16455,-14.1771 -0.36566,-14.17616 -1.78164,0.008 -23.40651,4.5599 -23.81701,5.01302 -0.29506,0.3257 -3.07692,4.76333 -6.18191,9.86143 l -5.64543,9.26925 -30.14115,17.1359 c -29.84988,16.9703 -78.90646,44.30982 -80.50523,44.86603 -0.73866,0.25699 -0.74937,0.20673 -0.098,-0.45971 z m 144.43676,-97.33863 c 1.17687,-1.09759 0.72876,-17.63466 -0.53926,-19.90048 -0.42757,-0.76403 -0.9553,0.13494 -8.6102,14.66716 l -3.30517,6.27459 6.04535,-0.35092 c 3.32493,-0.19301 6.20911,-0.50367 6.40928,-0.69035 z"
       id="path7048"
       transform="scale(0.26458333)" /><path
       style="fill:#ffffff;fill-opacity:1;stroke:none;stroke-width:2.027;stroke-linejoin:round;stroke-dashoffset:4.8378;paint-order:stroke fill markers"
       d="m 316.31276,152.35239 c -1.49665,-0.43727 -15.46708,-11.90277 -15.48451,-12.70809 -0.003,-0.15637 4.2217,-7.77282 9.38908,-16.92545 l 9.39522,-16.64115 6.71098,-7.064991 c 4.04688,-4.260354 8.20429,-8.10629 10.47268,-9.688073 l 3.7617,-2.623085 3.90045,0.372692 c 2.14525,0.204981 8.08922,0.388303 13.20882,0.407382 5.1196,0.01908 12.29473,0.177913 15.94474,0.352965 6.54169,0.313733 6.62871,0.332865 6.09896,1.340779 -1.0049,1.911903 -5.35202,6.866628 -7.62989,8.69633 l -2.26971,1.823153 -10.00321,0.0052 -10.00322,0.0052 -5.19033,5.241228 c -4.94101,4.98946 -5.35367,5.56912 -8.59065,12.06702 -1.87017,3.75418 -4.49395,8.8363 -5.83063,11.29359 -1.33668,2.4573 -3.91939,8.6005 -5.73937,13.65157 -1.81997,5.05107 -3.5485,9.43077 -3.84118,9.73268 -0.77585,0.80032 -2.77263,1.10731 -4.29993,0.66109 z"
       id="path7050"
       transform="scale(0.26458333)" /><path
       style="fill:#ffffff;fill-opacity:1;stroke:none;stroke-width:2.027;stroke-linejoin:round;stroke-dashoffset:4.8378;paint-order:stroke fill markers"
       d="m 320.12965,214.6447 c -1.85009,-8.647 -3.60101,-16.79932 -3.89093,-18.11627 l -0.52713,-2.39444 4.58867,-4.28486 4.58868,-4.28487 5.84015,13.99265 c 3.21209,7.69596 5.88343,14.05263 5.9363,14.12594 0.10734,0.14882 8.13379,-3.23693 8.4695,-3.57263 0.1173,-0.1173 -1.10026,-1.58544 -2.70568,-3.26253 -1.60542,-1.67709 -3.4932,-4.03655 -4.19507,-5.24326 -1.1909,-2.04745 -7.67112,-15.85505 -7.67112,-16.34506 0,-0.525 8.93596,-4.65347 9.28567,-4.29004 0.21249,0.22084 2.51085,5.72198 5.10746,12.22476 2.59661,6.50278 4.87075,11.82324 5.05365,11.82324 0.1829,0 1.45426,-1.15185 2.82525,-2.55967 l 2.4927,-2.55967 -6.37335,-14.59464 -6.37335,-14.59464 4.8391,-4.52661 c 2.66151,-2.48963 5.00278,-4.5335 5.20283,-4.54193 0.20004,-0.008 2.99739,5.24852 6.21634,11.68211 5.23994,10.47291 5.85328,11.96581 5.85889,14.26102 0.004,1.86503 0.71336,4.51204 2.60123,9.71424 2.45109,6.75423 2.77704,7.35411 5.87901,10.82001 l 3.28404,3.66934 -1.86294,0.48786 c -1.02461,0.26832 -3.61814,0.93317 -5.76338,1.47746 -9.44239,2.3957 -19.54734,6.23201 -26.91814,10.21939 -6.3433,3.43153 -8.04153,4.12295 -12.72163,5.17942 -2.97062,0.67057 -5.46903,1.21839 -5.55203,1.21737 -0.083,-9.8e-4 -1.66463,-7.07668 -3.51472,-15.72369 z"
       id="path7052"
       transform="scale(0.26458333)" /><path
       style="fill:#ffffff;fill-opacity:1;stroke:none;stroke-width:2.027;stroke-linejoin:round;stroke-dashoffset:4.8378;paint-order:stroke fill markers"
       d="m 393.9453,150.59549 c 0,-0.16671 2.20517,-6.33533 4.90037,-13.70802 2.69521,-7.3727 4.80021,-13.50508 4.67778,-13.6275 -0.12243,-0.12243 -4.62742,0.77474 -10.01109,1.9937 l -9.78849,2.21629 -11.06234,9.51787 c -6.08429,5.23483 -11.16037,9.41984 -11.28018,9.30003 -0.11981,-0.11981 0.76158,-1.38026 1.95865,-2.801 2.87957,-3.41761 4.97313,-6.61411 11.591,-17.69739 3.04222,-5.09496 7.28594,-12.11577 9.43048,-15.6018 4.39439,-7.14321 17.43902,-23.999159 19.02716,-24.58641 0.97912,-0.362055 6.8344,-1.134204 13.10613,-1.728336 1.5419,-0.146067 2.80301,-0.09911 2.80248,0.10435 -0.002,0.849913 -2.56077,17.481956 -4.81949,31.329736 -1.33404,8.17875 -2.68036,17.06446 -2.99181,19.74602 -0.31145,2.68156 -0.60086,4.90227 -0.64312,4.93491 -0.0423,0.0327 -2.20196,1.91223 -4.79934,4.17686 -3.55595,3.1004 -5.54611,4.44064 -8.05674,5.42566 -3.48547,1.36747 -4.04145,1.50573 -4.04145,1.00503 z m 6.33823,-35.07469 c 3.0838,-0.71316 5.76603,-1.4425 5.96052,-1.62077 0.45673,-0.41864 -2.17512,-14.314888 -2.70329,-14.273461 -0.21969,0.01723 -3.03937,3.799881 -6.26595,8.405891 -4.49949,6.42313 -5.71294,8.47476 -5.20745,8.80452 0.36248,0.23648 1.09785,0.32882 1.63417,0.20521 0.53631,-0.12361 3.49821,-0.80824 6.582,-1.52139 z"
       id="path7054"
       transform="scale(0.26458333)" /><path
       style="fill:#ffffff;fill-opacity:1;stroke:none;stroke-width:2.027;stroke-linejoin:round;stroke-dashoffset:4.8378;paint-order:stroke fill markers"
       d="m 409.05954,162.93548 c 0,-0.35177 2.54544,-7.75653 5.65654,-16.45502 5.5877,-15.62299 5.70364,-16.03495 9.52795,-33.85501 4.65685,-21.699475 4.48806,-21.015073 6.33714,-25.694359 1.44049,-3.645287 1.54954,-3.776179 3.75444,-4.506482 2.21596,-0.733968 10.95376,-2.754937 11.07822,-2.562284 0.0344,0.05328 -1.22233,5.678387 -2.79277,12.500238 -1.57044,6.821856 -2.68858,12.553737 -2.48475,12.737507 1.01053,0.91112 15.70581,5.33138 17.72431,5.33138 h 2.23852 l 5.12142,-7.67901 c 2.97238,-4.456773 7.79297,-10.748094 11.48808,-14.993045 l 6.36667,-7.314038 25.03363,-14.117781 c 13.76849,-7.764779 30.69761,-17.385362 37.62026,-21.379073 6.92265,-3.993711 12.67955,-7.16838 12.79311,-7.05482 0.22988,0.229881 -9.87147,8.940018 -13.6784,11.79454 -1.34078,1.005345 -3.97358,3.125351 -5.85067,4.711123 -6.25472,5.284008 -24.31157,20.139247 -29.88325,24.584737 l -5.49963,4.388005 -17.09526,25.073302 c -9.40238,13.79031 -17.18679,25.31184 -17.29868,25.60342 -0.11188,0.29157 0.45837,2.34346 1.26722,4.55977 0.80885,2.21631 1.47064,4.40766 1.47064,4.86967 0,0.70657 -1.98735,1.2472 -12.50975,3.40305 -6.88037,1.40966 -12.5479,2.50628 -12.59453,2.43693 -0.0466,-0.0693 1.84786,-6.70808 4.20997,-14.75275 2.3621,-8.04468 4.29984,-14.67216 4.30607,-14.72773 0.006,-0.0556 -3.54904,-9.7e-4 -7.90059,0.12135 l -7.91192,0.2224 -0.85278,1.66222 c -0.46902,0.91423 -1.38335,5.15917 -2.03184,9.4332 -0.64848,4.27404 -1.51152,8.41389 -1.91787,9.19968 -0.70907,1.37119 -6.45943,6.7254 -19.21134,17.88788 -3.27389,2.86582 -6.07124,5.21058 -6.21634,5.21058 -0.1451,0 -0.26382,-0.28781 -0.26382,-0.63958 z"
       id="path7056"
       transform="scale(0.26458333)" /><path
       style="fill:#ffffff;fill-opacity:1;stroke:none;stroke-width:2.027;stroke-linejoin:round;stroke-dashoffset:4.8378;paint-order:stroke fill markers"
       d="m 382.36266,241.9497 c 2.90299,-4.43285 30.10978,-49.34703 30.10978,-49.70656 0,-0.25055 -0.38396,-0.33721 -0.85323,-0.19258 -0.46927,0.14462 -4.10832,1.05623 -8.08677,2.02579 -6.70411,1.63382 -7.45644,1.72404 -10.27862,1.23257 -1.67478,-0.29165 -5.93414,-0.53027 -9.46524,-0.53027 -7.63765,0 -7.40923,0.33133 -4.44818,-6.45227 1.0846,-2.48476 3.95988,-9.34455 6.38952,-15.24398 2.42964,-5.89942 4.61429,-11.09658 4.85477,-11.54923 0.37323,-0.70252 0.78594,-0.4527 2.81912,1.70645 1.31004,1.39119 3.69289,4.13896 5.29521,6.10615 l 2.91333,3.57671 -1.39531,5.1993 c -0.76742,2.85962 -1.39551,5.47355 -1.39574,5.80875 -3.1e-4,0.4335 1.02004,0.60333 3.53435,0.58827 l 3.53478,-0.0212 4.51917,-4.24494 c 3.67142,-3.44863 5.40917,-5.62077 9.26356,-11.57921 3.82689,-5.9159 5.59299,-8.12858 9.1324,-11.44158 3.57963,-3.35064 4.41394,-3.92935 4.52874,-3.1413 0.0774,0.53132 -1.84235,11.62867 -4.26612,24.66078 -2.42376,13.03211 -4.40684,23.83805 -4.40684,24.01319 0,0.17515 -5.86896,6.3307 -13.04213,13.679 -9.54838,9.78151 -15.21966,15.13427 -21.17085,19.98185 -4.4708,3.64171 -8.28069,6.62129 -8.46642,6.62129 -0.18573,0 -0.0144,-0.49365 0.38072,-1.097 z"
       id="path7058"
       transform="scale(0.26458333)" /><path
       style="fill:#ffffff;fill-opacity:1;stroke:none;stroke-width:2.027;stroke-linejoin:round;stroke-dashoffset:4.8378;paint-order:stroke fill markers"
       d="m 430.08647,228.11209 c 0.1,-0.23287 3.40876,-6.89571 7.35286,-14.80631 6.22123,-12.47776 18.49688,-38.59872 18.25608,-38.84653 -0.0459,-0.0472 -1.36826,0.34794 -2.93865,0.8781 -1.5704,0.53016 -2.916,0.89788 -2.99023,0.81716 -0.0742,-0.0807 3.36605,-4.69969 7.64507,-10.26436 8.39349,-10.91537 20.77745,-24.3368 21.39676,-23.1893 0.41004,0.75974 4.99112,15.99881 7.54683,25.10467 l 1.80312,6.42447 -3.67146,5.03795 c -2.43761,3.34486 -5.96466,7.20735 -10.4951,11.49322 -5.94646,5.62546 -7.03306,6.45571 -8.45289,6.45874 -0.89609,0.002 -3.11472,0.14375 -4.93029,0.31521 l -3.30103,0.31175 -1.86469,3.9509 c -2.77852,5.88708 -11.01543,15.41386 -18.43526,21.32212 -6.14312,4.89166 -7.20756,5.65944 -6.92112,4.99221 z m 39.05871,-44.90569 5.3731,-3.28379 -0.31704,-4.12457 c -0.2669,-3.47225 -0.55668,-4.49801 -1.83228,-6.48586 -0.83338,-1.29872 -1.60274,-2.2738 -1.70968,-2.16686 -0.6578,0.6578 -7.79384,19.34488 -7.38724,19.34488 0.27502,0 2.91793,-1.47771 5.87314,-3.2838 z"
       id="path7060"
       transform="scale(0.26458333)" /><path
       style="fill:#ffffff;fill-opacity:1;stroke:none;stroke-width:2.027;stroke-linejoin:round;stroke-dashoffset:4.8378;paint-order:stroke fill markers"
       d="m 493.53846,206.36489 -9.86319,-9.87979 14.73875,-18.78225 c 10.11693,-12.89246 16.0383,-20.91363 18.88297,-25.57912 5.9149,-9.70094 9.64424,-14.30148 12.95931,-15.98672 1.941,-0.98673 2.71875,-1.18503 2.86838,-0.73134 0.11291,0.34236 1.98255,9.72758 4.15476,20.85605 4.32711,22.16825 4.2763,21.94002 4.88418,21.94002 0.45046,0 42.79928,-21.85151 74.30854,-38.34237 10.43471,-5.46117 19.05647,-9.84513 19.15945,-9.74214 0.14613,0.14612 -35.84667,28.24792 -93.48565,72.99002 l -1.72284,1.33735 -4.12783,-0.85932 c -2.4553,-0.51114 -5.33621,-1.52628 -7.1101,-2.50539 l -2.98226,-1.64606 -0.33498,-5.6186 c -0.18424,-3.09022 -0.52359,-5.80804 -0.75412,-6.03959 -0.37626,-0.37793 -12.28709,1.36837 -18.10204,2.65402 l -2.24053,0.49536 -0.31752,7.6556 c -0.17463,4.21058 -0.34012,9.4108 -0.36774,11.55605 -0.0917,7.12183 0.56063,7.35511 -10.54754,-3.77178 z m 25.34917,-28.46665 c 2.1783,-0.29857 2.23556,-0.35355 3.52277,-3.38223 1.24007,-2.91779 1.27677,-3.22688 0.70194,-5.91284 -0.3336,-1.55876 -0.74805,-2.99937 -0.92101,-3.20135 -0.17296,-0.20198 -2.353,2.40504 -4.84454,5.79339 -5.33654,7.25737 -5.25,7.63382 1.54084,6.70303 z"
       id="path7062"
       transform="scale(0.26458333)" /></g></svg>
