<?xml version="1.0" encoding="UTF-8" standalone="no"?>
<!-- Created with Inkscape (http://www.inkscape.org/) -->

<svg
   width="191mm"
   height="89mm"
   viewBox="0 0 191 89"
   version="1.1"
   id="svg5"
   xml:space="preserve"
   inkscape:version="1.2.2 (732a01da63, 2022-12-09)"
   sodipodi:docname="KenganAshura.svg"
   inkscape:export-filename="KenganAshura.png"
   inkscape:export-xdpi="96"
   inkscape:export-ydpi="96"
   xmlns:inkscape="http://www.inkscape.org/namespaces/inkscape"
   xmlns:sodipodi="http://sodipodi.sourceforge.net/DTD/sodipodi-0.dtd"
   xmlns="http://www.w3.org/2000/svg"
   xmlns:svg="http://www.w3.org/2000/svg"><sodipodi:namedview
     id="namedview7"
     pagecolor="#ffffff"
     bordercolor="#111111"
     borderopacity="1"
     inkscape:showpageshadow="0"
     inkscape:pageopacity="0"
     inkscape:pagecheckerboard="1"
     inkscape:deskcolor="#d1d1d1"
     inkscape:document-units="mm"
     showgrid="true"
     inkscape:zoom="1.4503086"
     inkscape:cx="289.59353"
     inkscape:cy="222.02171"
     inkscape:window-width="1920"
     inkscape:window-height="1001"
     inkscape:window-x="-9"
     inkscape:window-y="-9"
     inkscape:window-maximized="1"
     inkscape:current-layer="layer1"><inkscape:grid
       type="xygrid"
       id="grid302"
       originx="0"
       originy="0" /></sodipodi:namedview><defs
     id="defs2" /><g
     inkscape:label="Слой 1"
     inkscape:groupmode="layer"
     id="layer1"><path
       style="display:inline;fill:#1e0e0c;fill-opacity:1;stroke-width:0.264583"
       d="m 23.503818,88.675451 0.716621,-0.726919 36.006145,-29.289955 -4.894792,-2.459665 -5.461939,-2.246974 8.89627,-1.583359 7.613351,-1.079122 1.013082,-1.111433 6.379109,-7.783825 -0.746665,-3.765032 -4.233333,-0.264584 -0.328774,2.264319 -0.634526,4.416068 -0.797171,0.323874 -8.725927,2.471772 0.511496,-2.157953 0.449902,-2.290996 -2.991434,0.653398 -3.142225,0.728592 0.912086,0.908477 1.020133,1.15592 -12.354649,3.419165 -4.260197,-5.22552 -4.099139,-5.44234 -0.674452,2.84021 -0.629849,3.289125 L 0.06158,61.105136 0,60.873652 11.81117,50.200167 23.534145,39.758166 l 2.796304,-4.209328 3.289309,-4.752546 0.561969,-12.102885 0.06897,-11.5596676 4.480059,8.1341356 4.884272,8.767904 0.404215,0.633769 2.127183,-2.280045 2.127187,-2.280045 7.9375,-1.873533 16.230034,-3.863614 8.389347,-1.893276 -16.152719,9.311787 -3.704167,2.403869 10.108483,-1.091143 -0.451191,1.224504 -0.432269,1.243427 2.417091,-0.390624 2.283272,-0.524438 1.332256,0.479 -1.058333,4.233333 2.910416,0.529167 0.592654,-1.630269 1.074364,-3.936863 1.26333,-2.97068 0.765477,-0.465753 11.146355,-6.428912 3.27564,-1.696998 -2.7542,5.326941 -1.32234,3.9297 0.72392,-0.761008 6.401467,0.167175 9.26042,-0.264583 -1.32292,1.322916 -1.32292,2.645834 -2.381247,3.175 V 28.575 l 3.084277,-3.70598 3.54492,-3.83708 13.55108,-2.170692 -1.39486,7.332502 3.175,1.058333 2.91042,-4.7625 2.9986,-3.792079 1.5875,-0.711406 12.03854,-6.431553 4.7625,-2.568469 5.68854,-3.0610903 6.87917,-3.7398188 3.96875,-1.55487303 -13.89063,11.45008113 -13.09687,10.81204 -4.0563,6.305582 -3.79962,6.562257 0.72534,0.603455 1.37635,4.475962 1.37636,4.475961 2.73137,-3.484311 2.62519,-4.016221 -0.26066,-1.497217 -0.15448,-0.965308 3.09,-1.485845 3.22365,-1.352182 1.13606,6.119045 1.12924,6.11222 17.00494,-8.483254 16.98523,-8.502956 -0.65269,0.855929 -34.67942,28.706329 -2.97656,-1.653646 -2.65906,-2.931843 -1.52135,-0.866624 -0.59531,5.552636 -0.18706,5.3931 -1.65365,-1.577226 -1.46658,-1.577226 -5.90902,-6.886101 -0.79375,0.79375 -3.43959,0.529167 -0.32282,1.714917 -0.49663,1.241216 -6.18335,5.312005 -5.94035,3.953386 1.62794,-3.915275 2.72516,-4.89555 -18.700467,14.514084 -1.11082,0.681527 4.01354,-7.1095 4.239227,-7.310988 -3.894427,0.97124 -3.88078,0.770943 -1.14047,0.28583 -9.038573,3.432466 -8.40052,2.652654 -0.287994,-3.831397 v -3.831397 l -1.256771,0.165981 -3.459006,3.467767 -1.112091,2.901421 -19.641796,10.133076 -22.882938,11.831821 z m 28.971646,-17.348648 15.081025,-8.580194 1.587725,-2.595483 1.587727,-2.595484 2.248958,-0.439645 3.108855,-0.599887 0.859895,-0.160245 v 3.792231 3.792233 l 3.198323,-0.867656 3.341905,-1.011237 -1.671183,-8.364633 -1.67291,-7.540625 -1.332881,-4.745607 -1.455126,0.290105 -1.413079,1.131081 -4.323124,5.96556 -4.691925,5.26627 -4.342614,0.4485 -3.704167,0.529715 2.720949,1.177541 2.717077,1.164669 -1.719791,2.204141 -13.961869,11.199842 -12.435417,9.56772 z m 20.770019,-17.934652 2.923886,-5.516182 0.274447,1.12448 0.135967,2.652728 -0.221774,1.633723 z m 32.381277,7.372451 6.77705,-6.967154 0.20964,-1.203077 1.7969,-9.685766 0.34272,-1.785937 0.0818,-0.919615 -2.6245,2.44217 -2.45237,3.785889 -2.4474,2.382178 -1.78593,-0.0059 0.41761,-1.625087 0.41762,-1.436548 -1.38986,-1.713028 -1.55955,-1.713035 -1.58045,3.836459 -0.92217,2.248958 -0.63422,1.387398 -0.477686,1.190625 -0.577214,0.610618 h 1.32292 1.32291 1.32292 l 1.62447,0.301939 4.30309,-1.046713 -3.10821,5.103979 -5.49223,8.97808 5.11216,-4.166462 z m -17.128037,-0.364273 4.105444,-2.191996 3.96875,-1.322916 3.175,-0.79375 L 97.895833,53.975 96.572917,50.270833 V 48.947917 L 95.25,46.302083 l -1.912767,-3.767688 -2.79171,2.604641 3.38156,7.777631 -1.322916,1.322916 -2.645834,-6.614583 -2.645833,1.322917 1.807983,3.941728 0.83785,1.349938 1.322917,1.322917 -2.151967,0.912429 -3.1397,-7.527012 -2.545956,2.367637 0.103815,0.617297 0.379476,1.521354 1.619975,7.584787 2.95183,-0.638662 z m 25.884767,-0.306585 2.77974,-2.160243 2.95532,-3.503867 0.95945,-2.08185 2.66299,-0.10202 1.32291,-1.322916 0.79375,1.5875 0.79375,-0.79375 4.26868,6.027464 -5.06243,-5.233714 -0.79375,-1.5875 2.25301,-2.157472 1.92495,-2.645834 -1.27498,-4.522176 -1.26372,-4.15249 -3.60964,3.623323 -4.42372,5.753074 1.71562,-0.51919 0.13646,-0.164806 -2.38125,5.197724 -2.38125,5.003319 -0.79375,1.450081 -0.79375,1.644456 -0.43788,0.782106 -0.84093,1.291218 z m 8.13889,-10.745928 2.03784,-5.048681 0.78385,1.193408 0.11088,2.072678 z m -9.01567,5.547096 0.77482,-2.056543 1.00155,-10.518136 4.57317,-2.103566 2.75904,0.320083 -2.61683,0.46114 -2.50022,0.577749 -0.43873,2.025688 -0.86066,3.386111 -0.49942,1.984375 z m 22.72292,-4.838965 2.68801,-0.416393 0.16725,1.631455 0.0901,1.552401 1.67522,0.921729 2.17517,0.431972 13.56767,-10.543919 13.01578,-10.120845 -13.0791,6.838085 -13.14144,6.790505 -1.17651,-5.779749 -1.12793,-5.877271 -1.58258,0.874455 -1.52119,1.93157 -2.40781,3.888042 -5.06267,6.438998 -2.65915,3.396289 2.75185,2.747198 2.75185,2.747195 0.13229,-3.478135 0.1323,-3.478136 z m -0.47665,-3.087055 2.37204,-3.203408 0.38853,1.5875 -0.72761,1.591111 -1.29305,0.155342 z m -113.945797,0.565037 10.077322,-5.723803 0.770247,-2.812616 1.488096,-2.979041 4.791768,5.975109 4.450588,5.532062 3.911103,-0.781219 3.911099,-0.78122 -1.085649,-0.977627 -7.247418,-6.211581 -6.16177,-5.233953 9.733645,-5.559076 10.698228,-6.052496 1.332359,-0.832857 3.656182,-2.124398 4.8066,-2.567046 -2.645833,0.79375 -2.116667,0.529166 -4.8066,1.304747 -2.116666,0.503716 -5.55625,1.351107 -4.365625,1.090661 -4.137848,4.119534 -4.443229,3.930798 0.764524,-2.138159 1.069906,-1.949422 -3.108968,-5.723656 -3.166882,-5.237777 -0.326285,8.200187 -0.268369,7.714308 -3.478165,5.382567 -3.478165,5.382567 -6.191602,5.291667 -7.498457,6.687505 z m 72.1199,-9.169346 -1.62957,1.83847 7.18582,-11.628053 v -0.264583 l -3.85218,0.05886 -1.32302,0.212587 -2.21499,2.194727 -0.98829,1.885836 -3.792353,7.025073 -2.645833,1.322917 2.116666,-5.820834 1.852084,-3.439583 1.322916,-2.645833 2.645834,-2.645834 h 5.291666 l 1.24026,-1.013299 1.195177,-1.47379 0.45749,-0.795648 -7.831817,-0.05068 -2.93262,-0.252368 -1.98437,1.417015 -2.579536,2.697937 -0.79375,0.79375 -0.219946,0.322622 -5.011176,8.879454 2.019863,1.770938 1.871813,1.531388 0.810279,0.195598 3.175,-0.79375 4.233333,1.852083 1.058334,-1.852083 v 0 z m -2.38125,3.175 -4.233333,-1.852083 -2.90448,1.945403 -1.272876,0.645017 -0.854882,-0.541274 -0.990682,-0.405468 1.236235,4.854876 3.463768,-1.206887 1.322917,1.322916 1.322917,-1.322916 z m 10.918787,-1.599471 1.89204,-5.226571 -1.02482,0.262938 -7.596777,6.574017 0.57327,2.105754 1.058334,2.910417 1.5875,3.175 1.444153,-4.379239 2.06631,-5.422316 z m -36.054203,0.541138 0.79375,-4.497917 6.879166,-0.264583 1.279684,4.755 1.124045,-0.177874 1.389875,-1.870003 -0.08944,-2.177956 0.97636,-2.734542 2.946157,-5.348864 3.455826,-6.085417 1.088324,-1.970761 0.529166,-0.79375 0.50717,-0.848675 1.08033,-1.267991 -1.5875,1.058333 -4.542017,2.760115 -4.497917,2.697501 -1.592167,5.304778 -1.274149,2.466773 -2.116666,-0.529167 -3.704167,-0.264583 1.385718,-3.68972 -1.980477,-0.04494 -2.000025,0.677683 -3.450003,10.716281 -1.02785,3.439584 -0.762627,2.543016 -0.158719,0.558641 2.178847,-0.435544 2.178843,-0.435544 z m 45.239633,0.04209 3.31404,-2.987003 0.33528,-0.703551 0.5952,-4.090599 0.5221,-0.992187 0.37362,0.112387 3.59513,-0.112387 -2.28757,7.885289 6.95525,-1.409993 -0.39552,-1.389449 -0.52197,-1.263002 4.55768,-6.694511 4.55768,-6.694509 3.13632,-2.526963 4.27778,-3.558094 0.88701,-0.752934 0.79375,-0.529166 0.26459,-0.264584 0.38294,-0.39372 0.5081,-0.413644 0.83159,-0.595313 1.14368,-0.942903 3.74827,-3.2106697 -6.53385,3.7920867 -10.11348,5.711427 -4.82926,2.728667 -3.39424,3.907402 -2.64584,3.96875 h -1.32291 l -3.96875,-1.322917 1.54345,-6.744647 -1.66143,0.3053 -1.40468,0.378086 -0.62505,0.226814 -0.65984,1.611258 -0.10287,0.25444 -0.26489,1.044719 -1.25501,5.820833 -0.78691,3.704167 -2.94933,8.290063 -0.27694,1.058333 3.67691,-3.207276 z m -56.58898,1.788289 4.992955,-0.934847 1.990492,-5.27477 -1.669836,1.226412 -1.813573,1.75558 -3.042708,0.534463 -3.095659,0.484529 0.550198,-2.025462 0.603147,-1.975522 1.698762,-0.299501 2.959598,-0.479843 1.918229,-1.477639 0.657392,-1.530827 -2.844271,0.253439 -3.149283,0.489313 1.056884,-3.858739 2.55542,-0.756526 3.406473,-0.830463 1.400127,-0.359142 v 0 l 0.725638,-1.349313 0.332695,-1.031938 -0.79375,0.264584 -1.324882,0.213067 -5.823172,0.678115 -5.119576,0.716017 -2.73935,2.156534 -2.657377,2.238507 2.302679,-0.436861 2.425673,-0.317175 -2.645833,3.979162 -2.850803,3.903736 5.363503,4.829951 z m 53.72725,-5.244192 0.31278,-2.685217 0.53502,-3.307292 0.48865,-2.934729 0.5749,-3.644604 0.33075,-2.422881 -2.32262,0.185204 -2.19712,0.310713 -3.69008,4.619735 -2.01435,3.238717 -3.175,5.291667 -1.058333,1.5875 -2.074384,2.542222 3.30252,-2.795865 3.805867,-3.280035 5.1546,-1.152085 -2.7598,7.551764 2.24527,-0.886656 z m -5.11576,-6.270324 3.12513,-4.484685 0.70843,3.788051 -3.50283,0.832733 z m -59.136585,5.304899 0.09594,-1.902844 -0.4972,-1.109091 -1.518052,0.516644 -1.907836,0.660429 2.870231,2.687241 0.956919,-0.852379 z"
       id="path304"
       sodipodi:nodetypes="cccccccccccccccccccccccccccccccccccccccccccccccccccccccccccccccccccccccccccccccccccccccccccccccccccccccccccccccccccccccccccccccccccccccccccccccccccccccccccccccccccccccccccccccccccccccccccccccccccccccccccccccccccccccccccccccccccccccccccccccccccccccccccccccccccccccccccccccccccccccccccccccccccccccccccccccccccccccccccccccccccccccccccccccccccccccccccccccccccccccccccccccccccccccccccccccccccccccccccccccccccccccccccccccccccccccccccccccccccccccccccccccccccccccccccccccccccccccccccccccccccccccccccccccccccccccccccccccccccc" /><path
       style="fill:#ffffff;fill-opacity:1;stroke:none;stroke-width:2.86662;stroke-linejoin:round;stroke-dashoffset:4.8378;paint-order:stroke fill markers"
       d="m 48.265588,197.96743 c 0,-0.49984 21.630625,-19.72103 35.006621,-31.10723 l 10.529072,-8.96277 13.175699,-20.3405 13.17571,-20.3405 0.62289,-16.5482 c 0.3426,-9.101514 0.84548,-22.443501 1.11753,-29.648864 l 0.49463,-13.10066 5.61671,9.308364 c 3.08919,5.1196 8.25379,14.117684 11.4769,19.995743 l 5.86019,10.687381 -2.26537,4.481806 c -2.58538,5.11492 -4.82661,10.92034 -4.38599,11.36096 0.44646,0.44646 15.65268,-13.13537 25.06807,-22.39019 l 8.2741,-8.132997 23.09853,-5.645868 c 12.70419,-3.105228 29.38749,-7.326394 37.074,-9.380369 7.6865,-2.053975 14.20235,-3.733626 14.47967,-3.732559 0.27732,10e-4 -4.14997,2.583833 -9.83841,5.73948 -5.68845,3.155646 -13.44542,7.607152 -17.23771,9.892237 -5.68987,3.428486 -69.6779,39.869656 -78.4259,44.663526 -1.41898,0.7776 -2.58252,1.63548 -2.58565,1.90639 -0.003,0.27091 4.41578,4.26054 9.8198,8.86584 33.59961,28.63349 43.82607,37.57621 43.40109,37.95291 -0.26355,0.23362 -6.58974,1.61633 -14.0582,3.0727 l -13.57901,2.64794 -1.39525,-1.77378 c -0.76739,-0.97557 -8.68932,-10.83283 -17.6043,-21.90503 l -16.20904,-20.13126 -3.10937,6.42119 c -1.71015,3.53165 -3.73258,8.59314 -4.49427,11.24775 l -1.3849,4.82656 -35.243559,19.99574 C 48.11806,198.67088 48.265588,198.58968 48.265588,197.96743 Z"
       id="path6986"
       transform="scale(0.26458333)" /><path
       style="fill:#ffffff;fill-opacity:1;stroke:none;stroke-width:2.86662;stroke-linejoin:round;stroke-dashoffset:4.8378;paint-order:stroke fill markers"
       d="m 184.4435,156.7298 c -3.41307,-3.08709 -7.84613,-7.10023 -9.85124,-8.91809 l -3.64567,-3.30519 4.72679,-6.40521 c 2.59974,-3.52286 7.30082,-10.24969 10.44686,-14.94851 l 5.72006,-8.5433 -5.07742,0.48903 c -2.79258,0.26896 -6.43727,0.7885 -8.09932,1.15451 -1.66205,0.36602 -3.11573,0.57166 -3.2304,0.45699 -0.21996,-0.21996 9.56315,-8.38535 15.24008,-12.72001 3.77767,-2.88446 5.80449,-3.27837 34.49631,-6.704334 7.9886,-0.953884 15.04744,-1.934919 15.68631,-2.180077 1.5947,-0.611941 1.46704,0.52569 -0.49138,4.3789 l -1.65297,3.252241 -11.96482,2.99906 c -17.11655,4.29038 -15.742,3.38841 -18.0142,11.82094 -1.05178,3.90334 -1.77186,7.23746 -1.60018,7.40914 0.17168,0.17168 3.51446,-0.16016 7.4284,-0.73742 9.05394,-1.33537 14.35608,-1.8677 14.35608,-1.44134 0,1.83201 -2.55132,5.31415 -5.58482,7.6224 -3.473,2.64266 -4.29459,2.92703 -12.21025,4.22616 -4.6677,0.76607 -8.64289,1.54903 -8.83377,1.73991 -0.55139,0.55138 -4.5794,15.02097 -4.26815,15.33221 0.15434,0.15435 5.48404,-0.5944 11.84376,-1.66389 l 11.56314,-1.94453 3.22791,-3.09993 c 3.85537,-3.7025 8.39923,-7.13966 8.39923,-6.35353 0,0.30975 -1.43984,4.35296 -3.19964,8.98493 l -3.19965,8.42174 -8.00487,1.50169 c -8.51782,1.59792 -27.07929,4.81951 -27.65585,4.80004 -0.18962,-0.006 -3.13726,-2.53744 -6.55033,-5.62453 z"
       id="path6988"
       transform="scale(0.26458333)" /><path
       style="fill:#ffffff;fill-opacity:1;stroke:none;stroke-width:2.86662;stroke-linejoin:round;stroke-dashoffset:4.8378;paint-order:stroke fill markers"
       d="m 231.67482,168.53694 c 0,-1.00543 8.21438,-27.82106 14.00717,-45.72604 l 5.77461,-17.84881 3.38215,-1.28449 c 2.91405,-1.1067 10.62199,-1.83236 10.62199,-0.99999 0,0.15708 -1.09291,3.14951 -2.42869,6.64984 -1.33577,3.50033 -2.28873,6.50418 -2.11768,6.67523 0.17105,0.17105 3.66861,0.58983 7.77237,0.93061 4.10376,0.34079 9.04127,1.04587 10.97226,1.56685 l 3.51089,0.94723 2.32031,-4.21826 c 1.27616,-2.32004 3.74793,-8.9535 5.49281,-14.74101 l 3.17251,-10.522752 17.19761,-10.375066 c 9.45869,-5.706286 17.49239,-10.667259 17.85266,-11.024385 1.57786,-1.564097 1.6765,-0.447603 0.1406,1.591583 -1.89028,2.509724 -11.79867,19.759878 -23.86198,41.54288 -9.34145,16.86809 -11.76194,22.88201 -11.75715,29.21173 0.003,3.95305 -0.24243,4.72421 -2.46868,7.75697 -1.3596,1.85215 -2.88562,3.36754 -3.39115,3.36754 -0.50553,0 -1.33304,0.15883 -1.83892,0.35296 -0.67362,0.25849 -1.54836,-2.06832 -3.26858,-8.69435 l -2.3488,-9.04729 -13.16364,0.49694 c -7.24,0.27331 -13.25589,0.58052 -13.36863,0.68268 -0.11274,0.10217 -0.93303,4.17885 -1.82288,9.0593 -1.69872,9.31687 -4.32771,19.42614 -5.35594,20.59518 -0.77155,0.87722 -15.02522,3.77527 -15.02522,3.05492 z"
       id="path6990"
       transform="scale(0.26458333)" /><path
       style="fill:#ffffff;fill-opacity:1;stroke:none;stroke-width:2.86662;stroke-linejoin:round;stroke-dashoffset:4.8378;paint-order:stroke fill markers"
       d="m 315.52038,151.67552 c -2.48608,-1.2965 -13.54428,-10.63274 -13.99978,-11.81977 -0.18424,-0.48011 3.91019,-8.40774 9.09874,-17.61695 8.81905,-15.65303 9.84534,-17.16431 15.75109,-23.194593 3.47456,-3.547819 8.0766,-7.750872 10.22675,-9.340119 l 3.90938,-2.889539 5.05423,0.506259 c 2.77983,0.278442 11.64766,0.525441 19.70629,0.548886 8.05863,0.02345 14.65205,0.246676 14.65205,0.496068 0,0.959041 -5.72804,7.818667 -7.93367,9.500984 -2.23851,1.707398 -2.65279,1.767219 -12.23851,1.767219 h -9.92158 l -5.46599,5.702995 c -4.73071,4.93584 -6.20802,7.13871 -10.98207,16.37583 -3.03383,5.87005 -7.10591,14.99894 -9.04905,20.28643 -3.2603,8.87159 -4.17412,10.38039 -6.46488,10.67418 -0.18962,0.0243 -1.24397,-0.42472 -2.343,-0.99788 z"
       id="path6992"
       transform="scale(0.26458333)" /><path
       style="fill:#ffffff;fill-opacity:1;stroke:none;stroke-width:2.86662;stroke-linejoin:round;stroke-dashoffset:4.8378;paint-order:stroke fill markers"
       d="m 394.39881,150.03634 c 0,-0.34168 2.1361,-6.46969 4.74688,-13.61779 2.61079,-7.1481 4.51807,-13.08477 4.23841,-13.1926 -0.27967,-0.10783 -4.80331,0.7594 -10.05254,1.92716 -8.95254,1.99163 -9.76009,2.30824 -13.02964,5.10852 -1.91707,1.64192 -6.41786,5.49596 -10.00175,8.56454 -3.5839,3.06857 -6.62428,5.47113 -6.7564,5.33901 -0.13212,-0.13212 1.13789,-2.21602 2.82224,-4.63088 1.68435,-2.41486 6.143,-9.51025 9.90812,-15.76754 3.76511,-6.25729 8.20691,-13.54884 9.87068,-16.20345 4.61957,-7.37074 16.34352,-21.652568 18.10064,-22.049779 1.72275,-0.389438 12.70747,-1.73826 14.15629,-1.73826 0.69886,0 0.83703,0.664501 0.53764,2.585657 -0.22162,1.422111 -1.93118,12.204299 -3.79902,23.960422 -1.86784,11.75611 -3.61155,23.23643 -3.87493,25.51181 -0.47372,4.09269 -0.53159,4.182 -5.39757,8.33026 -5.21692,4.44744 -11.46905,7.64895 -11.46905,5.87292 z m 12.11561,-36.08683 c 0.23202,-0.23202 -2.45338,-14.536096 -2.79269,-14.875507 -0.1839,-0.183963 -9.91157,13.420727 -11.64404,16.284847 -1.13962,1.88403 1.0069,1.99509 7.62716,0.39462 3.63086,-0.87777 6.69516,-1.68955 6.80957,-1.80396 z"
       id="path6994"
       transform="scale(0.26458333)" /><path
       style="fill:#ffffff;fill-opacity:1;stroke:none;stroke-width:2.86662;stroke-linejoin:round;stroke-dashoffset:4.8378;paint-order:stroke fill markers"
       d="m 408.87848,163.61242 c 0,-0.21242 2.62791,-7.79077 5.8398,-16.84077 5.02578,-14.16094 6.4583,-19.28985 10.27699,-36.79506 2.44045,-11.187273 5.09788,-21.805447 5.90539,-23.595941 1.33089,-2.95099 1.80453,-3.356427 5.06457,-4.335225 1.97801,-0.593879 4.88128,-1.260855 6.45172,-1.482169 l 2.85534,-0.402388 -2.66607,11.632697 c -1.46634,6.397984 -2.67367,12.108196 -2.68296,12.689376 -0.0205,1.27862 14.2622,6.19034 17.94143,6.16996 2.27259,-0.0126 2.62865,-0.38527 7.74054,-8.10172 2.9471,-4.448693 8.10867,-11.215039 11.47016,-15.036329 l 6.11179,-6.947802 17.48919,-9.878298 c 9.61906,-5.433065 26.13381,-14.812614 36.69945,-20.843442 10.56563,-6.030828 19.32248,-10.852905 19.45966,-10.715726 0.22677,0.226775 -4.69176,4.446368 -15.91614,13.654401 -19.98831,16.39762 -33.55169,27.539334 -35.62885,29.267516 -1.36743,1.137689 -10.1373,13.329815 -19.48861,27.09361 l -17.00237,25.02509 1.72181,4.96853 1.7218,4.96853 -10.47993,2.19621 c -16.50414,3.45868 -14.97328,3.34075 -14.31072,1.10243 3.49338,-11.80168 7.62308,-26.46641 7.62308,-27.0699 0,-0.52125 -2.48181,-0.69753 -7.89613,-0.56086 -9.38286,0.23685 -8.83985,-0.32391 -10.46409,10.80632 -0.58753,4.02612 -1.37,8.12844 -1.73882,9.11625 -0.36881,0.98781 -5.69362,6.24159 -11.8329,11.67507 -6.13929,5.43347 -11.86046,10.49708 -12.71373,11.25245 -0.85327,0.75537 -1.5514,1.1996 -1.5514,0.98719 z"
       id="path6996"
       transform="scale(0.26458333)" /><path
       style="fill:#ffffff;fill-opacity:1;stroke:none;stroke-width:2.86662;stroke-linejoin:round;stroke-dashoffset:4.8378;paint-order:stroke fill markers"
       d="m 493.80705,206.28533 -9.87884,-9.89957 14.23157,-18.11837 c 7.82736,-9.96511 16.28715,-21.41749 18.79953,-25.44975 6.20692,-9.96179 10.01449,-14.72569 13.20096,-16.51659 l 2.6793,-1.50585 0.36144,1.55324 c 0.19879,0.85428 2.13907,10.6289 4.31172,21.72136 2.17266,11.09247 4.24933,20.16812 4.61483,20.16812 0.69126,0 32.10854,-16.14666 69.36772,-35.65099 11.89146,-6.22491 21.75063,-11.18822 21.90928,-11.02957 0.20237,0.20237 -74.89045,58.8584 -92.49654,72.25033 -1.09643,0.83399 -7.21331,-0.61432 -11.10419,-2.62916 l -3.53092,-1.82844 -0.36002,-5.77071 c -0.19801,-3.17389 -0.50153,-5.91222 -0.67448,-6.08517 -0.33659,-0.33659 -19.78467,2.88095 -20.25471,3.35099 -0.15408,0.15408 -0.50912,5.91854 -0.78897,12.80993 l -0.50884,12.52978 z m 26.37109,-28.4661 c 0.60011,-0.23028 1.67714,-1.74354 2.39341,-3.36279 1.1014,-2.48989 1.18917,-3.43855 0.56892,-6.14904 -0.40337,-1.76273 -0.95706,-3.11955 -1.23043,-3.01517 -0.77492,0.2959 -8.91579,11.49035 -8.91579,12.26005 0,0.74509 5.41365,0.94626 7.18389,0.26695 z"
       id="path6998"
       transform="scale(0.26458333)" /><path
       style="fill:#ffffff;fill-opacity:1;stroke:none;stroke-width:2.86662;stroke-linejoin:round;stroke-dashoffset:4.8378;paint-order:stroke fill markers"
       d="m 430.94275,226.92766 c 0,-0.14595 3.22628,-6.73937 7.16951,-14.65205 6.39221,-12.82692 17.6528,-36.9308 17.6528,-37.78672 0,-0.17977 -1.24112,0.11105 -2.75804,0.64625 -1.51692,0.5352 -2.75803,0.82032 -2.75803,0.6336 0,-0.18672 3.13674,-4.43929 6.97052,-9.45016 6.01976,-7.86798 20.13443,-23.24559 21.33647,-23.24559 0.43763,0 2.72719,7.30872 6.87016,21.9308 l 2.59958,9.17489 -3.98387,5.30479 c -2.19113,2.91763 -6.81288,8.09129 -10.27054,11.49701 l -6.28668,6.19223 -5.08571,0.25682 -5.08572,0.25681 -1.63596,3.52574 c -2.52888,5.45011 -12.1916,16.69072 -18.59514,21.63167 -5.43134,4.19081 -6.13935,4.66177 -6.13935,4.08391 z m 38.24326,-43.57006 5.19577,-3.15443 v -4.09508 c 0,-3.07743 -0.38553,-4.69027 -1.55139,-6.49016 -0.85327,-1.31729 -1.75154,-2.39891 -1.99616,-2.40361 -0.39061,-0.007 -2.0118,3.78039 -6.85757,16.02254 -0.71302,1.80134 -1.00165,3.27516 -0.64141,3.27516 0.36025,0 2.99309,-1.41949 5.85076,-3.15442 z"
       id="path7000"
       transform="scale(0.26458333)" /><path
       style="fill:#ffffff;fill-opacity:1;stroke:none;stroke-width:2.86662;stroke-linejoin:round;stroke-dashoffset:4.8378;paint-order:stroke fill markers"
       d="m 382.67717,242.13485 c 0,-0.21641 6.78751,-11.50139 15.08335,-25.07774 8.29585,-13.57634 14.85603,-24.77291 14.5782,-24.88126 -0.27784,-0.10835 -3.72985,0.55438 -7.67114,1.47273 -6.45135,1.50322 -8.21718,1.63377 -17.70694,1.30912 -5.79752,-0.19834 -10.44631,-0.55079 -10.33063,-0.78323 2.27943,-4.58015 5.64497,-12.26097 9.24893,-21.10786 2.47179,-6.06767 4.72123,-11.26874 4.99876,-11.55793 0.27754,-0.28919 2.77506,2.14062 5.55007,5.39959 l 5.04546,5.92539 -1.478,5.63254 c -0.8129,3.0979 -1.47381,5.86525 -1.46868,6.14968 0.005,0.28442 1.64604,0.51713 3.64649,0.51713 3.60287,0 3.68358,-0.0471 8.55882,-4.99894 2.7069,-2.74941 6.92583,-8.10917 9.3754,-11.91058 3.7718,-5.85334 12.48292,-15.4588 13.28871,-14.65302 0.18967,0.18968 -5.23477,30.15667 -8.16902,45.12921 -0.8335,4.25308 -0.84931,4.27373 -12.86075,16.79669 -6.61443,6.8961 -14.52653,14.60909 -17.58247,17.13998 -9.38723,7.77442 -12.10656,9.90793 -12.10656,9.4985 z"
       id="path7002"
       transform="scale(0.26458333)" /><path
       style="fill:#ffffff;fill-opacity:1;stroke:none;stroke-width:2.86662;stroke-linejoin:round;stroke-dashoffset:4.8378;paint-order:stroke fill markers"
       d="m 321.34529,219.43605 c -1.22895,-5.78325 -2.98839,-13.75602 -3.90985,-17.71726 l -1.6754,-7.20225 3.96049,-4.00226 c 2.17828,-2.20124 4.29636,-4.00226 4.70685,-4.00226 0.4105,0 3.31555,6.17358 6.45567,13.71906 l 5.70931,13.71906 4.2533,-1.72159 c 2.33931,-0.94687 4.37913,-1.84226 4.53294,-1.98976 0.1538,-0.14749 -1.28312,-1.92055 -3.19316,-3.94013 -2.33978,-2.47397 -4.59253,-6.01951 -6.9049,-10.86741 -5.11585,-10.72541 -5.10686,-9.87942 -0.13174,-12.39085 2.34268,-1.18259 4.48502,-1.89366 4.76074,-1.58017 0.27572,0.31349 2.45582,5.53445 4.84466,11.60212 2.38885,6.06768 4.60662,11.3263 4.92837,11.68583 0.64825,0.72435 5.41426,-3.51276 5.41426,-4.81341 0,-0.43253 -2.77576,-7.12023 -6.16836,-14.86155 l -6.16837,-14.07514 4.86883,-4.7341 4.86883,-4.7341 6.10349,11.62919 c 4.79314,9.13253 6.10835,12.24721 6.1261,14.50791 0.0124,1.58331 1.14984,6.01712 2.52757,9.85291 1.89369,5.27227 3.23977,7.79145 5.51607,10.32324 1.6561,1.84198 3.01109,3.50523 3.01109,3.69611 0,0.19088 -1.62896,0.72293 -3.61992,1.18233 -9.04633,2.08741 -22.80237,7.12972 -30.00742,10.99931 -6.60402,3.54678 -14.22052,6.23017 -17.68367,6.23017 -0.59211,0 -1.64141,-3.52982 -3.12578,-10.515 z"
       id="path7004"
       transform="scale(0.26458333)" /><path
       style="fill:#ffffff;fill-opacity:1;stroke:none;stroke-width:2.86662;stroke-linejoin:round;stroke-dashoffset:4.8378;paint-order:stroke fill markers"
       d="m 146.86529,296.69139 c 0.56885,-0.56499 8.48095,-6.72728 17.58246,-13.69397 9.10152,-6.96669 29.09053,-22.69626 44.42004,-34.95462 20.80501,-16.63686 28.71418,-23.37306 31.19409,-26.56778 1.82725,-2.35393 3.32503,-4.44931 3.32842,-4.6564 0.003,-0.20709 -4.37327,-2.2239 -9.72591,-4.48181 -11.30803,-4.77006 -11.84588,-4.24233 6.28454,-6.16624 5.87805,-0.62375 11.34118,-1.26325 12.14027,-1.42112 2.15665,-0.42607 18.07132,-18.8155 27.0011,-31.1998 7.60487,-10.54685 12.83619,-15.99698 15.35475,-15.99698 0.6827,0 1.67334,-0.1658 2.20143,-0.36845 1.67377,-0.64228 6.26973,17.47739 13.99719,55.18437 2.40923,11.75612 4.166,21.58695 3.90392,21.84629 -0.49427,0.48911 -21.75529,6.76831 -22.9171,6.76831 -0.39631,0 -0.65794,-5.65277 -0.65794,-14.21531 v -14.2153 l -1.89615,0.37895 c -1.04288,0.20843 -6.42625,1.23557 -11.96303,2.28255 l -10.06688,1.90359 -6.01287,9.85389 -6.01287,9.85389 -30.80682,17.51116 c -33.45942,19.01895 -75.30253,42.3093 -77.19853,42.96959 -1.05208,0.36638 -1.06884,0.29771 -0.15011,-0.61481 z m 142.03873,-95.50623 c 0.18962,-0.1678 0.449,-3.48326 0.5764,-7.36769 0.22859,-6.96921 -0.74549,-13.22453 -1.94399,-12.48382 -0.60373,0.37313 -11.04356,19.83218 -11.04356,20.58437 0,0.43788 11.88098,-0.26367 12.41115,-0.73286 z"
       id="path7006"
       transform="scale(0.26458333)" /></g></svg>
