<?xml version="1.0" encoding="UTF-8" standalone="no"?>
<!-- Created with Inkscape (http://www.inkscape.org/) -->

<svg
   width="2000"
   height="931.93719"
   viewBox="0 0 529.16658 246.57506"
   version="1.1"
   id="svg5"
   xml:space="preserve"
   inkscape:version="1.2.2 (732a01da63, 2022-12-09)"
   sodipodi:docname="KenganAshura.svg"
   inkscape:export-filename="KenganAshura.png"
   inkscape:export-xdpi="96"
   inkscape:export-ydpi="96"
   xmlns:inkscape="http://www.inkscape.org/namespaces/inkscape"
   xmlns:sodipodi="http://sodipodi.sourceforge.net/DTD/sodipodi-0.dtd"
   xmlns="http://www.w3.org/2000/svg"
   xmlns:svg="http://www.w3.org/2000/svg"><sodipodi:namedview
     id="namedview7"
     pagecolor="#ffffff"
     bordercolor="#111111"
     borderopacity="1"
     inkscape:showpageshadow="0"
     inkscape:pageopacity="0"
     inkscape:pagecheckerboard="1"
     inkscape:deskcolor="#d1d1d1"
     inkscape:document-units="mm"
     showgrid="true"
     inkscape:zoom="0.51276154"
     inkscape:cx="957.56012"
     inkscape:cy="392.97019"
     inkscape:window-width="1920"
     inkscape:window-height="1001"
     inkscape:window-x="-9"
     inkscape:window-y="-9"
     inkscape:window-maximized="1"
     inkscape:current-layer="layer1"><inkscape:grid
       type="xygrid"
       id="grid302"
       originx="0"
       originy="0" /></sodipodi:namedview><defs
     id="defs2" /><g
     inkscape:label="Слой 1"
     inkscape:groupmode="layer"
     id="layer1"><path
       style="display:inline;fill:#1e0e0c;fill-opacity:1;stroke-width:0.737954"
       d="m 65.55502,246.19899 1.998743,-2.02746 100.425537,-81.69327 -13.65217,-6.8603 -15.23402,-6.26709 24.81279,-4.41618 21.23456,-3.0098 2.82561,-3.09992 17.79212,-21.71004 -2.08254,-10.50114 -11.80729,-0.73795 -0.91699,6.31546 -1.76977,12.31695 -2.22341,0.90333 -24.33767,6.89407 1.42662,-6.0188 1.25483,-6.38986 -8.34347,1.8224 -8.76405,2.03214 2.54392,2.53385 2.84527,3.224 -34.45862,9.53647 -11.88221,-14.57461 -11.433,-15.17935 -1.881129,7.92169 -1.756726,9.17377 L 0.17175414,169.30202 0,168.65638 l 32.942796,-29.76965 32.696809,-29.12402 7.799234,-11.740331 9.174284,-13.255431 1.567401,-33.756425 0.192365,-32.241325 12.495432,22.687098 13.622829,24.454755 1.12741,1.767659 5.93297,-6.359324 5.93299,-6.359324 22.13865,-5.225512 45.26755,-10.776092 23.39891,-5.280578 -45.0519,25.971712 -10.33138,6.704684 28.1938,-3.043331 -1.25843,3.415291 -1.20565,3.46807 6.74156,-1.089498 6.36833,-1.462722 3.71582,1.33599 -2.95182,11.807283 8.11751,1.475911 1.65298,-4.547019 2.99653,-10.980392 3.52358,-8.28559 2.13501,-1.299042 31.08855,-17.93102 9.13616,-4.733135 -7.6818,14.857489 -3.68817,10.960413 2.0191,-2.122544 17.85448,0.466272 25.82844,-0.737955 -3.68979,3.689775 -3.68978,7.379554 -6.64159,8.855463 v 0.737954 l 8.60242,-10.336431 9.88722,-10.702085 37.79562,-6.054325 -3.89044,20.451244 8.85546,2.95182 8.11752,-13.283194 8.36346,-10.576572 4.42773,-1.984198 33.57696,-17.938387 13.2832,-7.163774 15.86603,-8.537755 19.18685,-10.4308113 11.06932,-4.33673083 -38.74266,31.93567513 -36.52877,30.1561 -11.31352,17.587039 -10.5976,18.302936 2.02306,1.683106 3.83881,12.48401 3.83884,12.484 7.61812,-9.71817 7.32198,-11.20173 -0.72702,-4.17592 -0.43086,-2.692362 8.61839,-4.144204 8.99115,-3.7714 3.16861,17.066766 3.14959,17.04773 47.42885,-23.66084 47.37389,-23.715779 -1.82044,2.387291 -96.72514,80.065458 -8.30198,-4.61222 -7.41645,-8.17727 -4.24323,-2.41712 -1.66039,15.48698 -0.52173,15.04202 -4.61224,-4.39908 -4.09047,-4.39908 -16.48098,-19.20617 -2.21386,2.21386 -9.59344,1.47591 -0.90038,4.78312 -1.38516,3.4619 -17.24612,14.81583 -16.56836,11.02648 4.54052,-10.92018 7.6008,-13.65429 -52.15788,40.48155 -3.09822,1.90087 11.19426,-19.82927 11.82372,-20.39124 -10.86203,2.70891 -10.82397,2.15025 -3.18091,0.79722 -25.20969,9.57357 -23.43007,7.39857 -0.80325,-10.68623 v -10.68624 l -3.50529,0.46294 -9.64759,9.67203 -3.10176,8.09242 -54.78337,28.26238 -63.823308,33.0004 z m 80.80546,-48.3875 42.06282,-23.93121 4.42836,-7.23911 4.42836,-7.23913 6.27262,-1.22622 8.67098,-1.67316 2.39835,-0.44694 v 10.57699 10.57701 l 8.92051,-2.42 9.32099,-2.82047 -4.66114,-23.32998 -4.66595,-21.03172 -3.71757,-13.23608 -4.05852,0.80914 -3.94125,3.15472 -12.05772,16.63868 -13.08635,14.68827 -12.11208,1.25092 -10.33138,1.47744 7.58906,3.2843 7.57826,3.24841 -4.79671,6.14762 -38.94135,31.23772 -34.6839,26.68554 z m 57.93012,-50.02193 8.15507,-15.38531 0.76547,3.13632 0.37923,7.39878 -0.61856,4.55665 z m 90.31534,20.56267 18.90202,-19.43225 0.58471,-3.35553 5.01177,-27.01478 0.95589,-4.9812 0.22815,-2.56492 -7.32005,6.81151 -6.83996,10.55931 -6.8261,6.64419 -4.98117,-0.0165 1.16476,-4.53257 1.16479,-4.0067 -3.87649,-4.77785 -4.34977,-4.77786 -4.40807,10.70035 -2.57204,6.27262 -1.76892,3.86962 -1.46633,3.54798 -1e-5,1.47591 h 2.21388 3.68976 3.68978 l 4.53085,0.84214 12.00184,-2.91941 -8.66918,14.23562 -15.3185,25.04097 14.25844,-11.62078 z m -47.77219,-1.01601 11.45058,-6.11374 11.06933,-3.68978 8.85547,-2.21386 -5.16569,-5.90364 -3.68978,-10.33138 v -3.68977 l -3.68977,-7.37956 -5.33495,-10.50854 -7.78642,7.26466 9.43159,21.69277 -3.68978,3.68977 -7.37955,-18.44888 -7.37955,3.68978 5.04268,10.99396 2.33687,3.76514 3.68978,3.68978 -6.0021,2.54487 -8.75701,-20.99375 -7.10098,6.60363 0.28955,1.72171 1.05841,4.24324 4.5183,21.1549 8.23302,-1.7813 z m 72.19578,-0.8551 7.75303,-6.02518 8.24275,-9.77271 2.67602,-5.80654 7.42741,-0.28454 3.68975,-3.68978 2.21387,4.42773 2.21387,-2.21386 11.90587,16.81133 -14.11974,-14.59747 -2.21387,-4.42773 6.28392,-6.01745 5.36893,-7.37956 -3.55608,-12.6129 -3.52467,-11.5818 -10.06773,10.10589 -12.33829,16.04603 4.78507,-1.44809 0.38061,-0.45966 -6.6416,14.49709 -6.6416,13.95486 -2.21386,4.04446 -2.21387,4.58659 -1.2213,2.18138 -2.34546,3.60137 z m 22.70036,-29.97171 5.68378,-14.08138 2.18625,3.32856 0.30926,5.78095 z m -25.14581,15.47153 2.16107,-5.73595 2.79344,-29.33636 12.75513,-5.86711 7.6953,0.89275 -7.29866,1.28618 -6.97342,1.61141 -1.22367,5.64989 -2.40048,9.44428 -1.39295,5.53467 z m 63.377,-13.49646 7.49719,-1.16137 0.46648,4.55032 0.2513,4.32984 4.67239,2.57082 6.06682,1.20482 37.84189,-29.40828 36.3026,-28.228273 -36.47921,19.072253 -36.65308,18.93955 -3.28143,-16.12043 -3.14594,-16.392424 -4.41401,2.438964 -4.24278,5.38738 -6.71568,10.84423 -14.1204,17.95915 -7.4167,9.47266 7.67525,7.66227 7.67524,7.66227 0.36898,-9.70095 0.369,-9.70094 z m -1.32944,-8.61018 6.61591,-8.93469 1.08366,4.42773 -2.02939,4.4378 -3.60648,0.43327 z m -317.808743,1.57596 28.106882,-15.96438 2.148313,-7.84473 4.150482,-8.308913 13.364826,16.665313 12.41323,15.42959 10.90855,-2.17891 10.90853,-2.17892 -3.02801,-2.72672 -20.21393,-17.32486 -17.18593,-14.598134 27.14832,-15.504942 29.83867,-16.881151 3.71611,-2.32294 10.19754,-5.925205 13.40619,-7.159805 -7.37955,2.213866 -5.90364,1.475908 -13.40619,3.639099 -5.90364,1.404926 -15.49706,3.768402 -12.17627,3.041987 -11.54096,11.489883 -12.39271,10.963476 2.13235,-5.963587 2.9841,-5.437176 -8.67129,-15.963975 -8.832821,-14.6088 -0.910049,22.871323 -0.748514,21.516147 -9.701027,15.012638 -9.701027,15.01264 -17.269134,14.7591 -20.914113,18.65227 z m 201.151213,-25.57442 -4.54507,5.12771 20.04213,-32.432057 v -0.737954 l -10.7442,0.164167 -3.69007,0.592932 -6.17787,6.121361 -2.75647,5.259827 -10.57733,19.593784 -7.37955,3.68978 5.90364,-16.235017 5.16569,-9.593417 3.68977,-7.379552 7.37955,-7.379554 h 14.75911 l 3.45923,-2.826215 3.3335,-4.11058 1.27599,-2.219159 -21.84389,-0.141353 -8.17944,-0.703885 -5.53465,3.952228 -7.19464,7.524876 -2.21386,2.213865 -0.61346,0.899832 -13.97678,24.765881 5.63364,4.93936 5.22072,4.27123 2.25997,0.54555 8.85546,-2.21387 11.80728,5.16569 2.95182,-5.16569 v 0 z m -6.6416,8.85546 -11.80728,-5.16569 -3.68978,8.11751 -7.96138,-0.89251 -2.38437,-1.50968 -2.76313,-1.1309 3.44801,13.54084 9.66087,-3.36615 3.68978,3.68977 3.68978,-3.68977 z m 30.45383,-4.46112 5.27713,-14.577546 -2.85835,0.733366 -21.18833,18.33574 1.59892,5.8732 2.95182,8.11751 4.42773,8.85546 4.02792,-12.21423 5.76319,-15.1235 z m -100.55957,1.5093 2.21386,-12.545241 19.18684,-0.737955 3.56919,13.262276 3.1351,-0.49611 3.87653,-5.21567 -0.24946,-6.074584 2.72319,-7.626972 8.21719,-14.918635 9.63872,-16.972971 3.03547,-5.496694 1.47591,-2.213865 1.41456,-2.367059 3.01317,-3.536581 -4.42773,2.95182 -12.66824,7.698298 -12.54524,7.523659 -4.44075,14.795674 -3.55376,6.880132 -5.90364,-1.475912 -10.33137,-0.737954 3.86494,-10.29108 -5.5238,-0.125343 -5.57831,1.890141 -9.62248,29.889016 -2.8668,9.59342 -2.12706,7.09278 -0.44269,1.55812 6.07707,-1.21478 6.07706,-1.21479 z m 126.17886,0.11739 9.24326,-8.33111 0.93514,-1.96229 1.66008,-11.409183 1.4562,-2.767331 1.04208,0.313461 10.02725,-0.313461 -6.38031,21.993034 19.39904,-3.93264 -1.10315,-3.87535 -1.45584,-3.522662 12.71193,-18.671809 12.71192,-18.671804 8.74758,-7.048008 11.93125,-9.923959 2.47398,-2.100025 2.21387,-1.475909 0.73797,-0.737957 1.06807,-1.098133 1.41715,-1.153704 2.31941,-1.6604 3.18986,-2.629872 10.45438,-8.95495 -18.2237,10.576593 -28.20773,15.929868 -13.4694,7.610585 -9.46695,10.898222 -7.37957,11.069328 h -3.68976 l -11.06933,-3.689777 4.30487,-18.811644 -4.63393,0.851519 -3.91782,1.054528 -1.74334,0.632612 -1.84038,4.493995 -0.28691,0.709664 -0.73881,2.913849 -3.50038,16.235015 -2.19479,10.331374 -8.22604,23.122001 -0.77242,2.95182 10.25535,-8.94549 z m -157.83358,4.98776 13.92596,-2.6074 5.55173,-14.711981 -4.65738,3.420611 -5.05828,4.89653 -8.48648,1.49068 -8.63417,1.35141 1.53457,-5.64926 1.68225,-5.509971 4.73805,-0.835345 8.25468,-1.338341 5.35018,-4.121315 1.83355,-4.269664 -7.93302,0.706872 -8.78374,1.364754 2.94778,-10.762494 7.12738,-2.110044 9.50107,-2.316262 3.90512,-1.001691 v 0 l 2.0239,-3.763399 0.92792,-2.878201 -2.21386,0.737957 -3.69526,0.59427 -16.24154,1.891345 -14.27912,1.997059 -7.64038,6.014837 -7.41175,6.243469 6.42245,-1.218458 6.7655,-0.88464 -7.37955,11.098369 -7.95124,10.887993 14.95946,13.47133 z m 149.85186,-14.62669 0.87239,-7.489401 1.49223,-9.224441 1.36291,-8.185318 1.60346,-10.165246 0.9225,-6.757711 -6.47807,0.516557 -6.12803,0.866616 -10.29209,12.885005 -5.61826,9.033178 -8.85547,14.759105 -2.95182,4.427736 -5.78571,7.09056 9.21113,-7.79801 10.61503,-9.148414 14.37681,-3.213306 -7.69742,21.06279 6.26233,-2.47299 z m -14.26848,-17.488702 8.71637,-12.508335 1.9759,10.565337 -9.76982,2.322594 z m -164.93916,14.796011 0.26759,-5.307264 -1.38675,-3.093391 -4.23403,1.440984 -5.32119,1.842017 8.00543,7.495045 2.66896,-2.377391 z"
       id="path304"
       sodipodi:nodetypes="cccccccccccccccccccccccccccccccccccccccccccccccccccccccccccccccccccccccccccccccccccccccccccccccccccccccccccccccccccccccccccccccccccccccccccccccccccccccccccccccccccccccccccccccccccccccccccccccccccccccccccccccccccccccccccccccccccccccccccccccccccccccccccccccccccccccccccccccccccccccccccccccccccccccccccccccccccccccccccccccccccccccccccccccccccccccccccccccccccccccccccccccccccccccccccccccccccccccccccccccccccccccccccccccccccccccccccccccccccccccccccccccccccccccccccccccccccccccccccccccccccccccccccccccccccccccccccccccccccc" /><path
       style="fill:#ffffff;fill-opacity:1;stroke:none;stroke-width:1.49584;stroke-linejoin:round;stroke-dashoffset:4.8378;paint-order:stroke fill markers"
       d="m 34.540277,145.6959 c 0,-0.28345 16.103583,-14.5624 25.438636,-22.5563 l 9.272941,-7.9407 9.681638,-14.98794 9.68164,-14.987938 0.477812,-13.312401 c 0.714385,-19.903666 1.151003,-29.738498 1.328098,-29.915591 0.254609,-0.25461 8.795946,14.159811 13.023348,21.978294 l 3.87897,7.174073 -1.67249,3.259969 c -1.58315,3.085833 -3.6433,8.476987 -3.23935,8.476987 0.48113,0 13.17839,-11.526879 18.47945,-16.776094 l 5.93661,-5.878552 17.09024,-4.166665 c 15.23413,-3.714137 27.15982,-6.781267 36.3302,-9.343648 1.67706,-0.468604 3.10362,-0.797599 3.17012,-0.731101 0.0665,0.0665 -2.22311,1.354418 -5.088,2.862045 -2.8649,1.507627 -7.85342,4.305941 -11.0856,6.218475 -6.45087,3.817094 -12.44425,7.251829 -43.92496,25.172893 -11.62586,6.61827 -21.13793,12.092747 -21.13793,12.165509 0,0.07276 4.25008,3.743596 9.44461,8.157405 5.19453,4.41382 13.96059,11.91539 19.48014,16.67015 5.51953,4.75477 10.33921,8.89079 10.71037,9.19117 0.61745,0.49968 -0.23074,0.72616 -9.96918,2.662 -9.07726,1.80442 -10.71339,2.04179 -11.11514,1.61264 -0.2591,-0.27679 -6.10402,-7.53034 -12.9887,-16.119 l -12.517601,-15.615765 -2.14869,4.282235 c -1.232363,2.45606 -2.626191,5.95236 -3.268396,8.19855 l -1.119707,3.91632 -26.804693,15.23643 c -14.742582,8.38004 -26.926125,15.23926 -27.07454,15.24274 -0.148415,0.004 -0.269846,-0.0623 -0.269846,-0.14619 z"
       id="path7042" /><path
       style="fill:#ffffff;fill-opacity:1;stroke:none;stroke-width:1.49584;stroke-linejoin:round;stroke-dashoffset:4.8378;paint-order:stroke fill markers"
       d="m 133.56266,112.35192 c -4.00112,-3.59392 -7.27477,-6.68118 -7.27477,-6.86058 0,-0.17939 1.51066,-2.38454 3.35702,-4.90033 3.51772,-4.793119 11.39455,-16.440495 11.39455,-16.84899 0,-0.399581 -8.73336,0.730922 -11.69332,1.513656 -0.93107,0.246219 0.17268,-0.728812 7.73558,-6.833421 l 5.93662,-4.791905 8.27527,-1.131849 c 4.5514,-0.622516 11.83724,-1.546394 16.19075,-2.053061 4.35352,-0.506666 8.62508,-1.077881 9.49235,-1.269365 0.86728,-0.191485 1.66164,-0.263385 1.76525,-0.159777 0.10361,0.103607 -0.44407,1.43799 -1.21707,2.965294 l -1.40545,2.776922 -8.81498,2.236588 c -4.84823,1.230127 -9.45156,2.463766 -10.22962,2.741415 l -1.41466,0.504813 -1.49476,5.3692 c -1.07009,3.843787 -1.36913,5.400142 -1.05256,5.4781 0.24321,0.05992 2.44294,-0.21217 4.88829,-0.604585 6.5545,-1.051815 11.27258,-1.362044 11.01992,-0.724591 -1.21798,3.072742 -1.51185,3.478271 -3.75227,5.178018 -1.30417,0.989436 -2.56859,1.914241 -2.80982,2.055131 -0.24124,0.140883 -3.01404,0.672433 -6.16179,1.181216 -3.14774,0.508776 -6.0562,1.063895 -6.46323,1.233595 -0.58517,0.243968 -1.06425,1.450506 -2.28893,5.764586 -0.85188,3.00082 -1.47822,5.52668 -1.39188,5.61303 0.0863,0.0863 4.02277,-0.48512 8.74759,-1.26991 l 8.59061,-1.42691 2.53619,-2.47656 c 2.51653,-2.45735 5.95186,-5.21969 6.19233,-4.97922 0.0689,0.0689 -0.99062,3.10626 -2.35446,6.7497 l -2.47972,6.62445 -4.80789,0.96734 c -2.64434,0.53202 -8.20795,1.54857 -12.36357,2.25898 -4.15563,0.71041 -7.96544,1.37305 -8.46625,1.47255 -0.77703,0.15436 -1.97723,-0.77724 -8.18532,-6.35353 z"
       id="path7044" /><path
       style="fill:#ffffff;fill-opacity:1;stroke:none;stroke-width:1.49584;stroke-linejoin:round;stroke-dashoffset:4.8378;paint-order:stroke fill markers"
       d="m 171.13989,121.99833 c 2.41782,-8.23825 6.89138,-22.660682 10.29099,-33.177363 l 4.07073,-12.592808 2.6847,-0.966869 c 1.93598,-0.697227 3.41217,-0.973163 5.29321,-0.989435 1.43468,-0.0124 2.60851,0.05564 2.60851,0.151192 0,0.09557 -0.82466,2.374135 -1.83258,5.06348 -1.00793,2.689345 -1.77519,4.947119 -1.70503,5.017276 0.0702,0.07018 2.47342,0.310584 5.34058,0.534295 2.86717,0.223711 6.45431,0.721122 7.97143,1.105368 1.51712,0.384246 2.85139,0.69863 2.96503,0.69863 0.11363,0 1.03534,-1.651426 2.04822,-3.669837 1.21039,-2.41197 2.56186,-6.070206 3.94296,-10.672975 1.15574,-3.851729 2.31187,-7.196966 2.56916,-7.433857 0.25729,-0.236893 3.54404,-2.266666 7.3039,-4.510608 3.75985,-2.243942 9.57166,-5.750799 12.91512,-7.793015 3.34347,-2.042217 6.14001,-3.652144 6.21454,-3.577616 0.0745,0.07453 -0.68868,1.413637 -1.69603,2.975797 -1.00734,1.562161 -4.34346,7.29275 -7.41359,12.734643 -16.66474,29.53868 -17.75563,31.860354 -17.75563,37.788122 v 3.34429 l -1.95577,2.59848 c -1.70363,2.26349 -2.12591,2.61835 -3.27549,2.75255 -0.74546,0.087 -1.37732,-0.0121 -1.4521,-0.22778 -0.0728,-0.21002 -0.8717,-3.12695 -1.77531,-6.48205 -0.9036,-3.35511 -1.70579,-6.163079 -1.78264,-6.239923 -0.13717,-0.137171 -19.36954,0.606304 -19.45767,0.752191 -0.0247,0.04096 -0.55881,2.988832 -1.18677,6.550802 -0.62797,3.56197 -1.74761,8.5749 -2.48809,11.13987 l -1.34633,4.66356 -4.67733,0.9364 c -2.57253,0.51502 -5.19298,1.04125 -5.8232,1.16941 l -1.14588,0.23301 z"
       id="path7046" /><path
       style="fill:#ffffff;fill-opacity:1;stroke:none;stroke-width:1.49584;stroke-linejoin:round;stroke-dashoffset:4.8378;paint-order:stroke fill markers"
       d="m 106.49919,219.15628 c 0.29683,-0.30369 7.25885,-5.72007 15.47116,-12.03639 8.21232,-6.31633 23.51258,-18.37868 34.00059,-26.80523 16.9674,-13.63239 19.32049,-15.64683 21.34992,-18.2773 1.25444,-1.62596 2.14493,-3.09018 1.97887,-3.25381 -0.16606,-0.16363 -3.37428,-1.61245 -7.12937,-3.2196 -3.75508,-1.60714 -6.87288,-2.96753 -6.92846,-3.02311 -0.14981,-0.14981 10.46217,-1.56623 16.4453,-2.195 3.0112,-0.31645 5.37998,-0.73541 5.61573,-0.99325 7.8314,-8.5647 13.52246,-15.43546 18.62931,-22.49097 6.71775,-9.28106 8.52578,-11.09231 11.82385,-11.84484 1.03403,-0.23593 1.90204,-0.39784 1.92891,-0.35979 0.34699,0.49131 4.53332,16.80686 5.9261,23.09603 2.10733,9.51577 6.81618,32.77905 6.81618,33.67423 0,0.33254 -0.36256,0.68112 -0.80954,0.77834 -0.44524,0.0968 -3.88578,1.0698 -7.64563,2.16214 -3.75986,1.09235 -7.3623,2.09725 -8.00543,2.23313 l -1.16934,0.24704 v -10.46262 c 0,-5.75445 -0.12143,-10.46207 -0.26984,-10.46137 -1.31477,0.006 -17.27295,3.365 -17.57588,3.69938 -0.21774,0.24035 -2.27063,3.51513 -4.56198,7.2773 l -4.16607,6.84029 -22.24282,12.64552 c -22.02788,12.52333 -58.22943,32.69867 -59.40926,33.10913 -0.54509,0.18964 -0.553,0.15255 -0.0723,-0.33925 z m 106.58786,-71.83155 c 0.86848,-0.80997 0.53779,-13.01359 -0.39795,-14.68566 -0.31553,-0.56382 -0.70497,0.0996 -6.35394,10.8237 l -2.43907,4.63037 4.4612,-0.25896 c 2.45365,-0.14244 4.58205,-0.37169 4.72976,-0.50945 z"
       id="path7048" /><path
       style="fill:#ffffff;fill-opacity:1;stroke:none;stroke-width:1.49584;stroke-linejoin:round;stroke-dashoffset:4.8378;paint-order:stroke fill markers"
       d="m 233.42466,111.30157 c -1.10447,-0.32269 -11.41402,-8.78371 -11.42688,-9.378 -0.002,-0.1154 3.11543,-5.735995 6.92872,-12.490226 l 6.93325,-12.280423 4.95241,-5.213647 c 2.98641,-3.143951 6.05439,-5.98208 7.72836,-7.149365 l 2.77597,-1.935719 2.87836,0.27503 c 1.5831,0.151267 5.96948,0.28655 9.74752,0.30063 3.77803,0.01408 9.07296,0.131292 11.7665,0.260472 4.82747,0.231521 4.89169,0.24564 4.50076,0.989435 -0.74157,1.410899 -3.94955,5.067264 -5.63052,6.417502 l -1.67494,1.345406 -7.38192,0.0038 -7.38193,0.0038 -3.83023,3.867792 c -3.64625,3.681998 -3.95077,4.109761 -6.33952,8.90492 -1.3801,2.770417 -3.31633,6.520794 -4.30274,8.334164 -0.98641,1.813378 -2.89234,6.346784 -4.2354,10.074249 -1.34306,3.72747 -2.61863,6.95949 -2.83462,7.18228 -0.57254,0.59061 -2.04608,0.81715 -3.17315,0.48786 z"
       id="path7050" /><path
       style="fill:#ffffff;fill-opacity:1;stroke:none;stroke-width:1.49584;stroke-linejoin:round;stroke-dashoffset:4.8378;paint-order:stroke fill markers"
       d="m 236.24135,157.27051 c -1.36528,-6.3811 -2.65739,-12.39715 -2.87133,-13.369 l -0.389,-1.76699 3.38623,-3.16203 3.38624,-3.16205 4.30977,10.32595 c 2.37038,5.67928 4.34171,10.37021 4.38072,10.42431 0.0792,0.10983 6.00238,-2.38871 6.25012,-2.63644 0.0866,-0.0866 -0.81195,-1.16998 -1.99667,-2.4076 -1.18473,-1.23762 -2.57783,-2.97879 -3.09578,-3.86929 -0.87883,-1.51093 -5.66094,-11.70032 -5.66094,-12.06192 0,-0.38743 6.59434,-3.43405 6.85241,-3.16586 0.15681,0.16297 1.85289,4.22257 3.76907,9.02133 1.91619,4.79876 3.5944,8.72502 3.72937,8.72502 0.13497,0 1.07318,-0.85002 2.08491,-1.88892 l 1.8395,-1.88893 -4.70325,-10.77019 -4.70324,-10.77019 3.57104,-3.34043 c 1.96407,-1.83724 3.69182,-3.34552 3.83945,-3.35174 0.14762,-0.006 2.21194,3.87317 4.58738,8.62087 3.86684,7.72854 4.31946,8.83023 4.3236,10.52399 0.003,1.37631 0.52643,3.32969 1.91959,7.16868 1.8088,4.98432 2.04933,5.427 4.33845,7.98468 l 2.42347,2.70781 -1.37476,0.36002 c -0.75612,0.19801 -2.67003,0.68864 -4.25312,1.0903 -6.96806,1.76792 -14.42506,4.59894 -19.86438,7.54145 -4.68107,2.53232 -5.93429,3.04255 -9.388,3.82218 -2.19218,0.49485 -4.03589,0.89912 -4.09714,0.89837 -0.0613,-7.3e-4 -1.22843,-5.22228 -2.59371,-11.60338 z"
       id="path7052" /><path
       style="fill:#ffffff;fill-opacity:1;stroke:none;stroke-width:1.49584;stroke-linejoin:round;stroke-dashoffset:4.8378;paint-order:stroke fill markers"
       d="m 290.71399,110.00506 c 0,-0.12303 1.62732,-4.67519 3.61626,-10.115909 1.98894,-5.440722 3.54234,-9.966144 3.45199,-10.056484 -0.0904,-0.09035 -3.41483,0.571723 -7.38774,1.471261 l -7.22346,1.635523 -8.16352,7.023762 c -4.48993,3.863067 -8.23585,6.951417 -8.32426,6.863007 -0.0884,-0.0884 0.56201,-1.01857 1.44539,-2.06701 2.125,-2.52205 3.66995,-4.880921 8.55364,-13.059886 2.24502,-3.759852 5.3767,-8.940895 6.95927,-11.51343 3.24287,-5.271369 12.86922,-17.710304 14.0412,-18.143669 0.72254,-0.267181 5.04348,-0.836992 9.67173,-1.275435 1.13786,-0.107791 2.0685,-0.07314 2.06811,0.07701 -10e-4,0.627197 -1.88974,12.900901 -3.55657,23.119942 -0.98446,6.035552 -1.97799,12.592808 -2.20782,14.571679 -0.22984,1.978869 -0.44341,3.617649 -0.4746,3.641739 -0.0312,0.0241 -1.62494,1.41114 -3.54169,3.08234 -2.62414,2.28795 -4.09278,3.27699 -5.94552,4.00389 -2.57212,1.00913 -2.98241,1.11116 -2.98241,0.74167 z m 4.67733,-25.883554 c 2.27571,-0.52628 4.25508,-1.064501 4.3986,-1.196056 0.33705,-0.308938 -1.60514,-10.563746 -1.99491,-10.533175 -0.16212,0.01272 -2.24292,2.804142 -4.62399,6.203171 -3.32042,4.739982 -4.21589,6.253993 -3.84286,6.497342 0.26749,0.174511 0.81016,0.242654 1.20594,0.151435 0.39578,-0.09122 2.58152,-0.596445 4.85722,-1.122717 z"
       id="path7054" /><path
       style="fill:#ffffff;fill-opacity:1;stroke:none;stroke-width:1.49584;stroke-linejoin:round;stroke-dashoffset:4.8378;paint-order:stroke fill markers"
       d="m 301.86763,119.11142 c 0,-0.25959 1.87842,-5.72398 4.17427,-12.14307 4.12347,-11.529069 4.20903,-11.833077 7.0312,-24.983483 3.43655,-16.013241 3.31199,-15.508183 4.67653,-18.961287 1.06301,-2.690058 1.14349,-2.786651 2.7706,-3.325582 1.63528,-0.541635 8.08339,-2.03302 8.17523,-1.89085 0.0254,0.03932 -0.90202,4.190395 -2.06093,9.224616 -1.15892,5.034224 -1.98406,9.264095 -1.83364,9.399709 0.74573,0.672366 11.59019,3.93432 13.07975,3.93432 h 1.65193 l 3.77937,-5.666765 c 2.19349,-3.288899 5.75087,-7.931613 8.47769,-11.064196 l 4.69832,-5.397433 18.4737,-10.41829 c 10.16053,-5.730059 22.65346,-12.829619 27.76207,-15.776799 5.1086,-2.94718 9.35694,-5.289943 9.44074,-5.206141 0.16964,0.169642 -7.2847,6.597333 -10.09405,8.703842 -0.98943,0.7419 -2.93232,2.306369 -4.31753,3.476598 -4.6157,3.899361 -17.94085,14.861863 -22.0525,18.142435 l -4.05848,3.238152 -12.61554,18.502974 c -6.93853,10.176631 -12.68308,18.679005 -12.76565,18.894178 -0.0826,0.215165 0.33826,1.729368 0.93515,3.364902 0.5969,1.63554 1.08527,3.25266 1.08527,3.5936 0,0.52142 -1.46658,0.92038 -9.23164,2.5113 -5.0774,1.04027 -9.25979,1.84952 -9.2942,1.79835 -0.0344,-0.0511 1.36364,-4.95027 3.10677,-10.886873 1.74313,-5.936614 3.17309,-10.827397 3.17769,-10.868406 0.004,-0.04103 -2.61903,-7.15e-4 -5.83028,0.08955 l -5.83864,0.164122 -0.62932,1.226644 c -0.34611,0.67466 -1.02085,3.807236 -1.4994,6.961279 -0.47855,3.15405 -1.11544,6.209074 -1.41531,6.788954 -0.52326,1.01188 -4.76677,4.96304 -14.17711,13.20045 -2.41598,2.11485 -4.4803,3.84518 -4.58738,3.84518 -0.10707,0 -0.19468,-0.21239 -0.19468,-0.47198 z"
       id="path7056" /><path
       style="fill:#ffffff;fill-opacity:1;stroke:none;stroke-width:1.49584;stroke-linejoin:round;stroke-dashoffset:4.8378;paint-order:stroke fill markers"
       d="m 282.16652,177.42037 c 2.14228,-3.27124 22.21967,-36.4159 22.21967,-36.68121 0,-0.1849 -0.28334,-0.24885 -0.62964,-0.14212 -0.3463,0.10673 -3.03176,0.77945 -5.96768,1.49494 -4.94733,1.20569 -5.50251,1.27227 -7.58516,0.90959 -1.23591,-0.21523 -4.37913,-0.39132 -6.98492,-0.39132 -5.63624,0 -5.46768,0.24451 -3.28256,-4.76149 0.80039,-1.83364 2.92222,-6.89586 4.71518,-11.24937 1.79297,-4.35351 3.40514,-8.18878 3.5826,-8.52282 0.27543,-0.51842 0.57999,-0.33407 2.08039,1.25929 0.96675,1.02663 2.72519,3.05437 3.90763,4.50606 l 2.1499,2.63946 -1.02967,3.83685 c -0.56632,2.11027 -1.02983,4.03923 -1.03,4.28659 -2.3e-4,0.31991 0.75275,0.44523 2.6082,0.43412 l 2.60851,-0.0156 3.33494,-3.13258 c 2.70934,-2.54493 3.99173,-4.14788 6.83609,-8.54494 2.82408,-4.36567 4.12738,-5.99853 6.73931,-8.44337 2.6416,-2.47262 3.25729,-2.89969 3.342,-2.31814 0.0571,0.39209 -1.35957,8.58144 -3.1482,18.19855 -1.78863,9.61711 -3.25205,17.59141 -3.25205,17.72066 0,0.12925 -4.33103,4.67177 -9.62451,10.09449 -7.04628,7.21832 -11.23143,11.16841 -15.62314,14.74571 -3.29925,2.68742 -6.11078,4.88622 -6.24784,4.88622 -0.13706,0 -0.0106,-0.3643 0.28095,-0.80954 z"
       id="path7058" /><path
       style="fill:#ffffff;fill-opacity:1;stroke:none;stroke-width:1.49584;stroke-linejoin:round;stroke-dashoffset:4.8378;paint-order:stroke fill markers"
       d="m 317.38456,167.20884 c 0.0738,-0.17185 2.51551,-5.08873 5.42608,-10.9264 4.59099,-9.20803 13.64987,-28.48412 13.47217,-28.667 -0.0339,-0.0348 -1.00971,0.25677 -2.16859,0.648 -1.15889,0.39124 -2.15188,0.6626 -2.20666,0.60303 -0.0548,-0.0596 2.484,-3.46816 5.64172,-7.57464 6.19402,-8.05505 15.33283,-17.95947 15.78985,-17.11266 0.30259,0.56065 3.68323,11.8064 5.56923,18.52612 l 1.33062,4.74097 -2.70938,3.71778 c -1.79884,2.46836 -4.40165,5.3187 -7.74491,8.48148 -4.38822,4.15134 -5.19008,4.76403 -6.23785,4.76626 -0.66128,0.001 -2.29853,0.10608 -3.63834,0.23261 l -2.43601,0.23006 -1.37606,2.91559 c -2.05042,4.3444 -8.12889,11.37474 -13.60439,15.73477 -4.53335,3.60983 -5.31886,4.17641 -5.10748,3.68403 z m 28.82358,-33.13839 3.96511,-2.42329 -0.23397,-3.04375 c -0.19696,-2.56236 -0.4108,-3.31933 -1.35214,-4.78627 -0.61499,-0.9584 -1.18275,-1.67797 -1.26166,-1.59905 -0.48543,0.48543 -5.75151,14.27566 -5.45146,14.27566 0.20296,0 2.15331,-1.09049 4.33412,-2.4233 z"
       id="path7060" /><path
       style="fill:#ffffff;fill-opacity:1;stroke:none;stroke-width:1.49584;stroke-linejoin:round;stroke-dashoffset:4.8378;paint-order:stroke fill markers"
       d="m 364.20929,151.16038 -7.2786,-7.29085 10.87654,-13.86046 c 7.46584,-9.51405 11.83555,-15.43332 13.93479,-18.87624 4.36493,-7.15886 7.11702,-10.55385 9.56339,-11.797484 1.43237,-0.728163 2.00631,-0.874499 2.11674,-0.539697 0.0833,0.252647 1.46303,7.178521 3.06602,15.390831 3.19322,16.35918 3.15572,16.19075 3.60431,16.19075 0.33242,0 31.58395,-16.12543 54.83637,-28.29495 7.70035,-4.030098 14.06283,-7.265265 14.13882,-7.189263 0.10784,0.107831 -26.45324,20.845703 -68.98822,53.863363 l -1.27138,0.98691 -3.04616,-0.63414 c -1.8119,-0.3772 -3.93788,-1.12633 -5.24693,-1.84887 l -2.20078,-1.21472 -0.2472,-4.14627 c -0.13596,-2.28044 -0.38638,-4.28607 -0.5565,-4.45695 -0.27767,-0.27889 -9.06733,1.0098 -13.3585,1.95855 l -1.65341,0.36555 -0.23431,5.64949 c -0.12887,3.10722 -0.251,6.94475 -0.27138,8.52785 -0.0677,5.25559 0.41372,5.42774 -7.78361,-2.7834 z m 18.70655,-21.00712 c 1.60749,-0.22033 1.64974,-0.2609 2.59965,-2.49593 0.91511,-2.1532 0.9422,-2.38129 0.518,-4.36341 -0.24619,-1.1503 -0.55203,-2.2134 -0.67967,-2.36245 -0.12763,-0.14906 -1.73641,1.77481 -3.57505,4.27526 -3.93813,5.35561 -3.87427,5.63342 1.13707,4.94653 z"
       id="path7062" /></g></svg>
