<?xml version="1.0" encoding="UTF-8" standalone="no"?>
<!-- Created with Inkscape (http://www.inkscape.org/) -->

<svg
   version="1.1"
   id="svg1"
   width="840"
   height="385.33334"
   viewBox="0 0 840 385.33334"
   sodipodi:docname="trist.svg"
   inkscape:version="1.3 (0e150ed6c4, 2023-07-21)"
   xmlns:inkscape="http://www.inkscape.org/namespaces/inkscape"
   xmlns:sodipodi="http://sodipodi.sourceforge.net/DTD/sodipodi-0.dtd"
   xmlns="http://www.w3.org/2000/svg"
   xmlns:svg="http://www.w3.org/2000/svg">
  <defs
     id="defs1" />
  <sodipodi:namedview
     id="namedview1"
     pagecolor="#ffffff"
     bordercolor="#666666"
     borderopacity="1.0"
     inkscape:showpageshadow="2"
     inkscape:pageopacity="0.0"
     inkscape:pagecheckerboard="true"
     inkscape:deskcolor="#d1d1d1"
     showgrid="true"
     showborder="true"
     labelstyle="default"
     inkscape:zoom="0.34255953"
     inkscape:cx="242.29366"
     inkscape:cy="-21.894005"
     inkscape:window-width="1920"
     inkscape:window-height="1017"
     inkscape:window-x="-8"
     inkscape:window-y="-8"
     inkscape:window-maximized="1"
     inkscape:current-layer="g1">
    <inkscape:grid
       id="grid1"
       units="px"
       originx="0"
       originy="0"
       spacingx="1"
       spacingy="0.99999999"
       empcolor="#0099e5"
       empopacity="0.30196078"
       color="#0099e5"
       opacity="0.14901961"
       empspacing="5"
       dotted="false"
       gridanglex="30"
       gridanglez="30"
       visible="true" />
  </sodipodi:namedview>
  <g
     inkscape:groupmode="layer"
     inkscape:label="Image"
     id="g1">
    <path
       style="fill:#ffffff;stroke:none;stroke-width:1px;stroke-linecap:butt;stroke-linejoin:miter;stroke-opacity:1;fill-opacity:1"
       d="M 0,0 H 114.57863 L 115,30 H 80 V 230 L 50,205 V 30 H 25 Z"
       id="path1" />
    <path
       style="fill:#ffffff;stroke:none;stroke-width:1px;stroke-linecap:butt;stroke-linejoin:miter;stroke-opacity:1;fill-opacity:1"
       d="M 165,205 V 0 h 30.03145 c 0,0 24.16212,0.3239599 34.96855,5 9.79427,4.2380661 19.08764,11.115583 25,20 6.72213,10.101246 10,22.866484 10,35.000001 0,12.133516 -3.84676,24.542475 -10,34.999999 -3.58593,6.09435 -9.26365,10.86547 -15,15 -3.02332,2.17909 -6.37292,4.14376 -10,5 -1.62208,0.38292 -5,0 -5,0 L 205,95 c 0,0 6.75584,0.76584 10,0 3.62708,-0.856238 7.36477,-2.364768 10,-4.999999 5.27046,-5.270463 8.28752,-12.74583 10,-20 1.53169,-6.488327 1.53169,-13.511674 0,-20.000001 -0.87482,-3.70577 -4.86189,-10.859266 -10,-15 -4.91991,-3.964892 -10.92373,-5 -15,-5 h -15 v 175 z"
       id="path2"
       sodipodi:nodetypes="cccssssssccssssssccc" />
    <path
       style="fill:#ffffff;fill-opacity:1;stroke:none;stroke-width:0.487864px;stroke-linecap:butt;stroke-linejoin:miter;stroke-opacity:1"
       d="M 276.60483,385 V 284.98786 h 14.65127 c 0,0 11.78783,0.15805 17.0599,2.43932 4.77827,2.06761 9.31217,5.4229 12.1966,9.75729 3.27948,4.92803 4.87864,11.15573 4.87864,17.07524 0,5.91951 -1.8767,11.97339 -4.87864,17.07524 -1.74945,2.97322 -4.5194,5.30087 -7.31796,7.31796 -1.47497,1.0631 -3.10912,2.02159 -4.87864,2.43932 -0.79136,0.18682 -2.43932,0 -2.43932,0 l -9.75729,-9.75728 c 0,0 3.29594,0.37363 4.87864,0 1.76953,-0.41773 3.59301,-1.15369 4.87865,-2.43932 2.57126,-2.57127 4.04318,-6.21823 4.87864,-9.75728 0.74725,-3.16542 0.74725,-6.59186 0,-9.75728 -0.4268,-1.80791 -2.37195,-5.29785 -4.87864,-7.31796 -2.40025,-1.93433 -5.3293,-2.43932 -7.31797,-2.43932 h -7.31796 V 385 Z"
       id="path2-1"
       sodipodi:nodetypes="cccssssssccssssssccc" />
    <path
       style="fill:#ffffff;stroke:none;stroke-width:1px;stroke-linecap:butt;stroke-linejoin:miter;stroke-opacity:1;fill-opacity:1"
       d="M 410,205 H 385 V 80.000001 L 335,205 310,204.70895 V 0 h 30.28671 L 340,125 384.80452,0 h 25.36055 z"
       id="path3"
       sodipodi:nodetypes="ccccccccccc" />
    <path
       id="path4"
       style="fill:#ffffff;fill-opacity:1;stroke:none;stroke-width:1px;stroke-linecap:butt;stroke-linejoin:miter;stroke-opacity:1"
       d="m 467.5,0 v 180 l 25,25 V 0 Z m 25,0 v 25 h 69.65234 L 561.97852,0 Z"
       sodipodi:nodetypes="cccccccccc" />
    <path
       id="path6"
       style="fill:#ffffff;fill-opacity:1;stroke:none;stroke-width:1;stroke-linecap:butt;stroke-linejoin:miter;stroke-dasharray:none;stroke-opacity:1"
       d="M 630.30664 0 L 581.01953 205 L 610.18945 205 L 640 58.160156 L 654.67773 130 L 635 130 L 659.73047 154.73047 L 670 205 L 698.54688 205 L 649.69336 0 L 630.30664 0 z " />
    <path
       id="path6-8"
       style="fill:#ffffff;fill-opacity:1;stroke:none;stroke-width:0.489431;stroke-linecap:butt;stroke-linejoin:miter;stroke-dasharray:none;stroke-opacity:1"
       d="M 583.58698,284.66666 559.46435,385 h 14.27666 l 14.5902,-71.86796 7.18374,35.16064 h -9.63089 L 597.98791,360.39654 603.01414,385 h 13.97172 L 593.07544,284.66666 Z" />
    <path
       id="path7"
       style="fill:#ffffff;fill-opacity:1;stroke:none;stroke-width:1px;stroke-linecap:butt;stroke-linejoin:miter;stroke-opacity:1"
       d="m 735,0 v 205 h 25 V 0 Z m 80,0 v 130 h -45 l 25,25 h 20 v 50 h 25 V 0 Z"
       sodipodi:nodetypes="cccccccccccccc" />
    <path
       id="path7-14"
       style="fill:#ffffff;fill-opacity:1;stroke:none;stroke-width:0.487804px;stroke-linecap:butt;stroke-linejoin:miter;stroke-opacity:1"
       d="m 650,285 v 100 h 12.19512 V 285 Z m 39.02439,0 v 63.41463 h -21.95122 l 12.19512,12.19513 h 9.7561 V 385 h 12.19512 V 285 Z"
       sodipodi:nodetypes="cccccccccccccc" />
    <path
       id="path4-9"
       style="fill:#ffffff;fill-opacity:1;stroke:none;stroke-width:0.486561px;stroke-linecap:butt;stroke-linejoin:miter;stroke-opacity:1"
       d="M 477.83593,285.25391 477.62785,375 490,385 v -99.74609 z m 12.16407,0 v 12.16406 h 33.89063 l -0.084,-12.16406 z"
       sodipodi:nodetypes="cccccccccc" />
    <path
       style="fill:#ffffff;fill-opacity:1;stroke:none;stroke-width:0.486561;stroke-linecap:butt;stroke-linejoin:miter;stroke-dasharray:none;stroke-opacity:1"
       d="m 372.40277,385 h 14.14931 L 400.70139,314.25349 414.85069,385 H 429 L 405.41782,284.92057 h -9.43286 z"
       id="path6-2-0"
       sodipodi:nodetypes="cccccccc" />
    <path
       id="path9"
       style="fill:#ffffff;fill-opacity:1;stroke:none;stroke-width:1px;stroke-linecap:butt;stroke-linejoin:miter;stroke-opacity:1"
       d="m 165,285 17.58008,52.19336 10,-22.20703 L 180,285 Z m 45,0 -45,100 h 15 l 45,-100 z" />
    <path
       id="path6-8-3"
       style="fill:#ffffff;fill-opacity:1;stroke:none;stroke-width:0.489431;stroke-linecap:butt;stroke-linejoin:miter;stroke-dasharray:none;stroke-opacity:1"
       d="M 395.60112,284.66666 371.47849,385 h 14.27666 l 14.5902,-71.86796 7.18374,35.16064 H 397.8982 L 410.00205,360.39654 415.02828,385 H 429 L 405.08958,284.66666 Z" />
  </g>
</svg>
